<?xml version="1.0" encoding="UTF-8"?>
<svg xmlns="http://www.w3.org/2000/svg" xmlns:xlink="http://www.w3.org/1999/xlink" width="38px" height="38px" viewBox="0 0 38 38" version="1.1">
<g id="surface1">
<path style=" stroke:none;fill-rule:nonzero;fill:rgb(69.411767%,96.470588%,63.921571%);fill-opacity:1;" d="M 20.925781 38.027344 C 13.953125 38.027344 6.988281 38.027344 0.0273438 38.027344 C 0.0273438 25.359375 0.0273438 12.695312 0.0273438 0.0273438 C 12.695312 0.0273438 25.359375 0.0273438 38.027344 0.0273438 C 38.027344 12.695312 38.027344 25.359375 38.027344 38.027344 C 32.332031 38.027344 26.636719 38.027344 20.925781 38.027344 M 23.195312 33.027344 C 20.8125 33.027344 18.429688 33.027344 16.050781 33.027344 C 16.050781 23.730469 16.050781 14.449219 16.050781 5.167969 C 16.074219 5.164062 16.085938 5.164062 16.101562 5.164062 C 19.152344 5.160156 22.207031 5.160156 25.261719 5.164062 C 25.308594 5.164062 25.375 5.210938 25.398438 5.257812 C 25.707031 5.835938 26.007812 6.417969 26.3125 6.996094 C 26.933594 8.179688 27.558594 9.355469 28.179688 10.535156 C 28.515625 11.171875 28.847656 11.804688 29.183594 12.4375 C 29.203125 12.476562 29.253906 12.535156 29.289062 12.535156 C 29.714844 12.542969 30.136719 12.539062 30.566406 12.539062 C 30.566406 9.542969 30.566406 6.554688 30.566406 3.570312 C 22.671875 3.570312 14.785156 3.570312 6.898438 3.570312 C 6.898438 4.105469 6.898438 4.625 6.898438 5.160156 C 8 5.160156 9.097656 5.160156 10.199219 5.160156 C 10.199219 14.453125 10.199219 23.734375 10.199219 33.023438 C 9.09375 33.023438 7.996094 33.023438 6.898438 33.023438 C 6.898438 33.5625 6.898438 34.089844 6.898438 34.625 C 14.878906 34.625 22.851562 34.625 30.832031 34.625 C 30.832031 31.371094 30.832031 28.125 30.832031 24.875 C 30.808594 24.871094 30.792969 24.867188 30.773438 24.867188 C 30.375 24.867188 29.976562 24.863281 29.578125 24.871094 C 29.535156 24.871094 29.472656 24.925781 29.449219 24.972656 C 28.816406 26.296875 28.183594 27.621094 27.554688 28.945312 C 26.921875 30.269531 26.289062 31.597656 25.660156 32.921875 C 25.621094 33.007812 25.574219 33.03125 25.488281 33.03125 C 24.730469 33.027344 23.976562 33.027344 23.195312 33.027344 M 19.890625 17.683594 C 19.890625 18.90625 19.890625 20.128906 19.890625 21.351562 C 21.824219 21.351562 23.738281 21.351562 25.652344 21.351562 C 25.652344 19.425781 25.652344 17.507812 25.652344 15.589844 C 23.726562 15.589844 21.816406 15.589844 19.890625 15.589844 C 19.890625 16.285156 19.890625 16.96875 19.890625 17.683594 Z M 19.890625 17.683594 "/>
<path style=" stroke:none;fill-rule:nonzero;fill:rgb(5.882353%,5.882353%,5.490196%);fill-opacity:1;" d="M 23.207031 33.027344 C 23.976562 33.027344 24.730469 33.027344 25.488281 33.03125 C 25.574219 33.03125 25.621094 33.007812 25.660156 32.921875 C 26.289062 31.597656 26.921875 30.269531 27.554688 28.945312 C 28.183594 27.621094 28.816406 26.296875 29.449219 24.972656 C 29.472656 24.925781 29.535156 24.871094 29.578125 24.871094 C 29.976562 24.863281 30.375 24.867188 30.773438 24.867188 C 30.792969 24.867188 30.808594 24.871094 30.832031 24.875 C 30.832031 28.125 30.832031 31.371094 30.832031 34.625 C 22.851562 34.625 14.878906 34.625 6.898438 34.625 C 6.898438 34.089844 6.898438 33.5625 6.898438 33.023438 C 7.996094 33.023438 9.09375 33.023438 10.199219 33.023438 C 10.199219 23.734375 10.199219 14.453125 10.199219 5.160156 C 9.097656 5.160156 8 5.160156 6.898438 5.160156 C 6.898438 4.625 6.898438 4.105469 6.898438 3.570312 C 14.785156 3.570312 22.671875 3.570312 30.566406 3.570312 C 30.566406 6.554688 30.566406 9.542969 30.566406 12.539062 C 30.136719 12.539062 29.714844 12.542969 29.289062 12.535156 C 29.253906 12.535156 29.203125 12.476562 29.183594 12.4375 C 28.847656 11.804688 28.515625 11.171875 28.179688 10.535156 C 27.558594 9.355469 26.933594 8.179688 26.3125 6.996094 C 26.007812 6.417969 25.707031 5.835938 25.398438 5.257812 C 25.375 5.210938 25.308594 5.164062 25.261719 5.164062 C 22.207031 5.160156 19.152344 5.160156 16.101562 5.164062 C 16.085938 5.164062 16.074219 5.164062 16.050781 5.167969 C 16.050781 14.449219 16.050781 23.730469 16.050781 33.027344 C 18.429688 33.027344 20.8125 33.027344 23.207031 33.027344 Z M 23.207031 33.027344 "/>
<path style=" stroke:none;fill-rule:nonzero;fill:rgb(5.882353%,5.882353%,5.490196%);fill-opacity:1;" d="M 19.890625 17.671875 C 19.890625 16.96875 19.890625 16.285156 19.890625 15.589844 C 21.816406 15.589844 23.726562 15.589844 25.652344 15.589844 C 25.652344 17.507812 25.652344 19.425781 25.652344 21.351562 C 23.738281 21.351562 21.824219 21.351562 19.890625 21.351562 C 19.890625 20.128906 19.890625 18.90625 19.890625 17.671875 Z M 19.890625 17.671875 "/>
</g>
</svg>
