<?xml version="1.0" encoding="UTF-8"?>
<svg xmlns="http://www.w3.org/2000/svg" xmlns:xlink="http://www.w3.org/1999/xlink" width="38px" height="38px" viewBox="0 0 38 38" version="1.1">
<g id="surface1">
<path style=" stroke:none;fill-rule:nonzero;fill:rgb(69.01961%,96.078432%,63.529414%);fill-opacity:1;" d="M 0.0273438 0.03125 C 12.6875 0.03125 25.351562 0.03125 38.015625 0.03125 C 38.015625 12.679688 38.015625 25.324219 38.007812 37.984375 C 25.347656 38 12.691406 38 0.0273438 38 C 0.0273438 25.328125 0.0273438 12.679688 0.0273438 0.03125 M 9.027344 9.539062 C 7.414062 9.539062 5.804688 9.539062 4.191406 9.539062 C 4.191406 9.863281 4.191406 10.175781 4.191406 10.492188 C 4.480469 10.496094 4.765625 10.492188 5.054688 10.496094 C 5.054688 16.074219 5.054688 21.628906 5.054688 27.203125 C 4.765625 27.203125 4.476562 27.203125 4.1875 27.203125 C 4.1875 27.53125 4.1875 27.84375 4.1875 28.160156 C 6.285156 28.160156 8.375 28.160156 10.46875 28.160156 C 10.46875 26.210938 10.46875 24.269531 10.46875 22.324219 C 10.351562 22.324219 10.238281 22.324219 10.117188 22.324219 C 9.777344 23.949219 9.4375 25.582031 9.097656 27.203125 C 8.257812 27.203125 7.425781 27.203125 6.589844 27.203125 C 6.589844 21.632812 6.589844 16.074219 6.589844 10.503906 C 7.402344 10.503906 8.214844 10.503906 9.03125 10.503906 C 9.371094 11.96875 9.707031 13.441406 10.046875 14.90625 C 10.164062 14.90625 10.28125 14.90625 10.398438 14.90625 C 10.398438 13.113281 10.398438 11.332031 10.398438 9.539062 C 9.941406 9.539062 9.492188 9.539062 9.027344 9.539062 M 11.199219 27.207031 C 11.171875 27.199219 11.15625 27.222656 11.15625 27.296875 C 11.15625 27.460938 11.15625 27.621094 11.15625 27.785156 C 11.15625 27.910156 11.15625 28.03125 11.15625 28.152344 C 11.253906 28.183594 14 28.175781 14.050781 28.144531 C 14.050781 27.835938 14.050781 27.53125 14.050781 27.207031 C 13.96875 27.207031 13.894531 27.207031 13.816406 27.207031 C 13.738281 27.207031 13.660156 27.207031 13.582031 27.203125 C 13.503906 27.203125 13.425781 27.210938 13.34375 27.199219 C 13.34375 27.132812 13.34375 27.082031 13.34375 27.035156 C 13.34375 24.359375 13.34375 21.683594 13.34375 19.007812 C 13.34375 18.910156 13.355469 18.832031 13.378906 18.75 C 13.535156 18.199219 13.730469 17.726562 13.957031 17.328125 C 14.238281 16.832031 14.5625 16.667969 14.910156 16.804688 C 15.117188 16.886719 15.28125 17.128906 15.390625 17.546875 C 15.464844 17.828125 15.511719 18.132812 15.542969 18.449219 C 15.585938 18.859375 15.59375 19.277344 15.59375 19.695312 C 15.59375 20.539062 15.59375 21.378906 15.59375 22.21875 C 15.59375 23.816406 15.59375 25.410156 15.59375 27.007812 C 15.59375 27.070312 15.59375 27.132812 15.59375 27.203125 C 15.351562 27.210938 15.117188 27.199219 14.882812 27.210938 C 14.882812 27.542969 14.882812 27.847656 14.882812 28.15625 C 14.988281 28.183594 17.707031 28.175781 17.753906 28.144531 C 17.753906 27.835938 17.753906 27.527344 17.753906 27.207031 C 17.507812 27.207031 17.261719 27.207031 17.011719 27.207031 C 17.011719 27.125 17.011719 27.0625 17.011719 27 C 17.011719 24.46875 17.011719 21.941406 17.011719 19.414062 C 17.011719 19.128906 17.007812 18.847656 16.996094 18.566406 C 16.976562 17.984375 16.914062 17.421875 16.800781 16.894531 C 16.605469 16 16.316406 15.351562 15.890625 15.054688 C 15.652344 14.886719 15.40625 14.847656 15.15625 14.875 C 14.765625 14.917969 14.402344 15.191406 14.078125 15.703125 C 13.707031 16.28125 13.394531 16.996094 13.15625 17.867188 C 13.128906 17.960938 13.101562 17.992188 13.050781 17.953125 C 13.113281 17.050781 13.175781 16.152344 13.238281 15.238281 C 12.523438 15.238281 11.816406 15.238281 11.101562 15.238281 C 11.101562 15.507812 11.101562 15.773438 11.101562 16.035156 C 11.378906 16.296875 11.652344 16.554688 11.921875 16.808594 C 11.921875 20.285156 11.921875 23.738281 11.921875 27.207031 C 11.679688 27.207031 11.445312 27.207031 11.199219 27.207031 M 21.1875 28.476562 C 21.285156 28.4375 21.386719 28.414062 21.480469 28.363281 C 22.324219 27.917969 22.949219 26.839844 23.328125 25.046875 C 23.5625 23.925781 23.65625 22.734375 23.644531 21.496094 C 23.632812 20.597656 23.566406 19.730469 23.425781 18.890625 C 23.128906 17.125 22.597656 15.910156 21.816406 15.269531 C 21.230469 14.789062 20.632812 14.742188 20.027344 15.058594 C 19.464844 15.355469 18.984375 15.988281 18.601562 16.988281 C 18.21875 17.984375 18.019531 19.164062 17.9375 20.457031 C 17.894531 21.175781 17.890625 21.894531 17.921875 22.617188 C 17.953125 23.332031 18.019531 24.03125 18.140625 24.695312 C 18.546875 26.894531 19.28125 28.121094 20.308594 28.460938 C 20.597656 28.558594 20.886719 28.546875 21.1875 28.476562 M 32.976562 17.394531 C 32.882812 16.777344 32.722656 16.269531 32.5 15.859375 C 32.300781 15.492188 32.074219 15.234375 31.828125 15.078125 C 31.472656 14.851562 31.109375 14.824219 30.746094 14.90625 C 30.335938 15 29.953125 15.289062 29.597656 15.765625 C 29.117188 16.410156 28.777344 17.324219 28.589844 18.527344 C 28.542969 18.828125 28.511719 19.136719 28.503906 19.464844 C 29.011719 19.464844 29.511719 19.464844 30.019531 19.464844 C 30.019531 19.398438 30.019531 19.339844 30.019531 19.28125 C 30.019531 18.441406 30.019531 17.601562 30.019531 16.757812 C 30.019531 16.414062 30.019531 16.414062 30.160156 16.273438 C 30.375 16.054688 30.597656 16.003906 30.828125 16.050781 C 31.113281 16.105469 31.332031 16.402344 31.484375 16.957031 C 31.605469 17.398438 31.660156 17.890625 31.6875 18.402344 C 31.71875 19.007812 31.699219 19.613281 31.703125 20.222656 C 31.703125 20.238281 31.699219 20.253906 31.699219 20.277344 C 31.675781 20.289062 31.65625 20.304688 31.632812 20.320312 C 31.238281 20.582031 30.84375 20.835938 30.449219 21.101562 C 30.113281 21.332031 29.777344 21.578125 29.464844 21.945312 C 29.199219 22.253906 28.957031 22.621094 28.761719 23.144531 C 28.605469 23.570312 28.480469 24.027344 28.433594 24.582031 C 28.398438 24.992188 28.390625 25.398438 28.410156 25.8125 C 28.453125 26.589844 28.597656 27.238281 28.871094 27.726562 C 29.042969 28.035156 29.238281 28.242188 29.453125 28.359375 C 29.71875 28.511719 29.992188 28.511719 30.265625 28.421875 C 30.601562 28.308594 30.902344 28.023438 31.167969 27.535156 C 31.449219 27.019531 31.691406 26.429688 31.882812 25.734375 C 31.914062 25.621094 31.914062 25.625 31.976562 25.660156 C 31.925781 26.488281 31.878906 27.320312 31.832031 28.160156 C 32.511719 28.160156 33.1875 28.160156 33.867188 28.160156 C 33.867188 27.886719 33.867188 27.625 33.867188 27.359375 C 33.605469 27.117188 33.34375 26.875 33.085938 26.632812 C 33.085938 26.554688 33.085938 26.488281 33.085938 26.425781 C 33.085938 23.949219 33.085938 21.476562 33.085938 19 C 33.085938 18.460938 33.054688 17.929688 32.976562 17.394531 M 26.039062 17.914062 C 25.984375 18.117188 25.929688 18.316406 25.875 18.519531 C 25.84375 18.632812 25.84375 18.636719 25.773438 18.59375 C 25.84375 17.480469 25.910156 16.363281 25.976562 15.242188 C 25.261719 15.242188 24.558594 15.242188 23.851562 15.242188 C 23.851562 15.511719 23.851562 15.769531 23.851562 16.035156 C 24.125 16.296875 24.398438 16.550781 24.667969 16.808594 C 24.667969 20.277344 24.667969 23.730469 24.667969 27.207031 C 24.40625 27.207031 24.144531 27.207031 23.886719 27.207031 C 23.886719 27.535156 23.886719 27.847656 23.886719 28.160156 C 24.964844 28.160156 26.039062 28.160156 27.113281 28.160156 C 27.113281 27.84375 27.113281 27.535156 27.113281 27.210938 C 26.773438 27.210938 26.433594 27.210938 26.09375 27.210938 C 26.09375 27.152344 26.089844 27.109375 26.089844 27.066406 C 26.089844 24.613281 26.089844 22.164062 26.089844 19.710938 C 26.089844 19.640625 26.097656 19.570312 26.109375 19.507812 C 26.179688 19.160156 26.273438 18.847656 26.382812 18.558594 C 26.417969 18.464844 26.449219 18.433594 26.503906 18.433594 C 27.007812 18.4375 27.511719 18.4375 28.011719 18.4375 C 28.039062 18.4375 28.0625 18.4375 28.089844 18.4375 C 28.089844 17.253906 28.089844 16.089844 28.089844 14.914062 C 27.234375 15.304688 26.5625 16.324219 26.039062 17.914062 M 8.027344 16.746094 C 7.886719 16.746094 7.746094 16.746094 7.601562 16.746094 C 7.601562 17.910156 7.601562 19.054688 7.601562 20.207031 C 8.105469 20.207031 8.605469 20.207031 9.105469 20.207031 C 9.105469 19.054688 9.105469 17.90625 9.105469 16.746094 C 8.75 16.746094 8.394531 16.746094 8.027344 16.746094 Z M 8.027344 16.746094 "/>
<path style=" stroke:none;fill-rule:nonzero;fill:rgb(74.509805%,96.470588%,69.803923%);fill-opacity:1;" d="M 0.0195312 0.03125 C 0.0273438 12.679688 0.0273438 25.328125 0.0273438 38 C 12.691406 38 25.347656 38 38.007812 38 C 38.011719 38.011719 38.007812 38.03125 38.007812 38.03125 C 37.988281 38.035156 37.96875 38.03125 37.949219 38.03125 C 25.304688 38.03125 12.660156 38.03125 0.015625 38.03125 C 0.015625 25.367188 0.015625 12.699219 0.0195312 0.03125 Z M 0.0195312 0.03125 "/>
<path style=" stroke:none;fill-rule:nonzero;fill:rgb(5.882353%,5.882353%,5.882353%);fill-opacity:1;" d="M 9.035156 9.539062 C 9.492188 9.539062 9.941406 9.539062 10.398438 9.539062 C 10.398438 11.332031 10.398438 13.113281 10.398438 14.90625 C 10.28125 14.90625 10.164062 14.90625 10.046875 14.90625 C 9.707031 13.441406 9.371094 11.96875 9.03125 10.503906 C 8.214844 10.503906 7.402344 10.503906 6.589844 10.503906 C 6.589844 16.074219 6.589844 21.632812 6.589844 27.203125 C 7.425781 27.203125 8.257812 27.203125 9.097656 27.203125 C 9.4375 25.582031 9.777344 23.949219 10.117188 22.324219 C 10.238281 22.324219 10.351562 22.324219 10.46875 22.324219 C 10.46875 24.269531 10.46875 26.210938 10.46875 28.160156 C 8.375 28.160156 6.285156 28.160156 4.1875 28.160156 C 4.1875 27.84375 4.1875 27.53125 4.1875 27.203125 C 4.476562 27.203125 4.765625 27.203125 5.054688 27.203125 C 5.054688 21.628906 5.054688 16.074219 5.054688 10.496094 C 4.765625 10.492188 4.480469 10.496094 4.191406 10.492188 C 4.191406 10.175781 4.191406 9.863281 4.191406 9.539062 C 5.804688 9.539062 7.414062 9.539062 9.035156 9.539062 Z M 9.035156 9.539062 "/>
<path style=" stroke:none;fill-rule:nonzero;fill:rgb(5.882353%,6.27451%,5.882353%);fill-opacity:1;" d="M 11.207031 27.207031 C 11.445312 27.207031 11.679688 27.207031 11.921875 27.207031 C 11.921875 23.738281 11.921875 20.285156 11.921875 16.808594 C 11.652344 16.554688 11.378906 16.296875 11.101562 16.035156 C 11.101562 15.773438 11.101562 15.507812 11.101562 15.238281 C 11.816406 15.238281 12.523438 15.238281 13.238281 15.238281 C 13.175781 16.152344 13.113281 17.050781 13.050781 17.953125 C 13.101562 17.992188 13.128906 17.960938 13.15625 17.867188 C 13.394531 16.996094 13.707031 16.28125 14.078125 15.703125 C 14.402344 15.191406 14.765625 14.917969 15.15625 14.875 C 15.40625 14.847656 15.652344 14.886719 15.890625 15.054688 C 16.316406 15.351562 16.605469 16 16.800781 16.894531 C 16.914062 17.421875 16.976562 17.984375 16.996094 18.566406 C 17.007812 18.847656 17.011719 19.128906 17.011719 19.414062 C 17.011719 21.941406 17.011719 24.46875 17.011719 27 C 17.011719 27.0625 17.011719 27.125 17.011719 27.207031 C 17.261719 27.207031 17.507812 27.207031 17.753906 27.207031 C 17.753906 27.527344 17.753906 27.835938 17.753906 28.144531 C 17.707031 28.175781 14.988281 28.183594 14.882812 28.15625 C 14.882812 27.847656 14.882812 27.542969 14.882812 27.210938 C 15.117188 27.199219 15.351562 27.210938 15.59375 27.203125 C 15.59375 27.132812 15.59375 27.070312 15.59375 27.007812 C 15.59375 25.410156 15.59375 23.816406 15.59375 22.21875 C 15.59375 21.378906 15.59375 20.539062 15.59375 19.695312 C 15.59375 19.277344 15.585938 18.859375 15.542969 18.449219 C 15.511719 18.132812 15.464844 17.828125 15.390625 17.546875 C 15.28125 17.128906 15.117188 16.886719 14.910156 16.804688 C 14.5625 16.667969 14.238281 16.832031 13.957031 17.328125 C 13.730469 17.726562 13.535156 18.199219 13.378906 18.75 C 13.355469 18.832031 13.34375 18.910156 13.34375 19.007812 C 13.34375 21.683594 13.34375 24.359375 13.34375 27.035156 C 13.34375 27.082031 13.34375 27.132812 13.34375 27.199219 C 13.425781 27.210938 13.503906 27.203125 13.582031 27.203125 C 13.660156 27.207031 13.738281 27.207031 13.816406 27.207031 C 13.894531 27.207031 13.96875 27.207031 14.050781 27.207031 C 14.050781 27.53125 14.050781 27.835938 14.050781 28.144531 C 14 28.175781 11.253906 28.183594 11.15625 28.152344 C 11.15625 28.03125 11.15625 27.910156 11.15625 27.785156 C 11.15625 27.621094 11.15625 27.460938 11.15625 27.296875 C 11.15625 27.222656 11.171875 27.199219 11.207031 27.207031 Z M 11.207031 27.207031 "/>
<path style=" stroke:none;fill-rule:nonzero;fill:rgb(6.27451%,6.27451%,6.27451%);fill-opacity:1;" d="M 21.179688 28.480469 C 20.886719 28.546875 20.597656 28.558594 20.308594 28.460938 C 19.28125 28.121094 18.546875 26.894531 18.140625 24.695312 C 18.019531 24.03125 17.953125 23.332031 17.921875 22.617188 C 17.890625 21.894531 17.894531 21.175781 17.9375 20.457031 C 18.019531 19.164062 18.21875 17.984375 18.601562 16.988281 C 18.984375 15.988281 19.464844 15.355469 20.027344 15.058594 C 20.632812 14.742188 21.230469 14.789062 21.816406 15.269531 C 22.597656 15.910156 23.128906 17.125 23.425781 18.890625 C 23.566406 19.730469 23.632812 20.597656 23.644531 21.496094 C 23.65625 22.734375 23.5625 23.925781 23.328125 25.046875 C 22.949219 26.839844 22.324219 27.917969 21.480469 28.363281 C 21.386719 28.414062 21.285156 28.4375 21.179688 28.480469 M 20.152344 16.304688 C 20.0625 16.46875 19.984375 16.660156 19.917969 16.875 C 19.820312 17.191406 19.75 17.539062 19.691406 17.902344 C 19.53125 18.894531 19.46875 19.929688 19.449219 20.976562 C 19.4375 21.730469 19.441406 22.484375 19.476562 23.238281 C 19.507812 23.949219 19.5625 24.652344 19.664062 25.335938 C 19.734375 25.824219 19.828125 26.292969 19.972656 26.695312 C 20.234375 27.425781 20.574219 27.683594 20.976562 27.523438 C 21.226562 27.421875 21.417969 27.113281 21.574219 26.667969 C 21.699219 26.304688 21.785156 25.890625 21.855469 25.457031 C 22.019531 24.457031 22.078125 23.417969 22.097656 22.363281 C 22.109375 21.542969 22.101562 20.726562 22.058594 19.910156 C 22.019531 19.238281 21.960938 18.574219 21.855469 17.9375 C 21.773438 17.460938 21.675781 17.007812 21.527344 16.613281 C 21.148438 15.605469 20.511719 15.636719 20.152344 16.304688 Z M 20.152344 16.304688 "/>
<path style=" stroke:none;fill-rule:nonzero;fill:rgb(6.27451%,6.27451%,6.27451%);fill-opacity:1;" d="M 32.976562 17.40625 C 33.054688 17.929688 33.085938 18.460938 33.085938 19 C 33.085938 21.476562 33.085938 23.949219 33.085938 26.425781 C 33.085938 26.488281 33.085938 26.554688 33.085938 26.632812 C 33.34375 26.875 33.605469 27.117188 33.867188 27.359375 C 33.867188 27.625 33.867188 27.886719 33.867188 28.160156 C 33.1875 28.160156 32.511719 28.160156 31.832031 28.160156 C 31.878906 27.320312 31.925781 26.488281 31.976562 25.660156 C 31.914062 25.625 31.914062 25.621094 31.882812 25.734375 C 31.691406 26.429688 31.449219 27.019531 31.167969 27.535156 C 30.902344 28.023438 30.601562 28.308594 30.265625 28.421875 C 29.992188 28.511719 29.71875 28.511719 29.453125 28.359375 C 29.238281 28.242188 29.042969 28.035156 28.871094 27.726562 C 28.597656 27.238281 28.453125 26.589844 28.410156 25.8125 C 28.390625 25.398438 28.398438 24.992188 28.433594 24.582031 C 28.480469 24.027344 28.605469 23.570312 28.761719 23.144531 C 28.957031 22.621094 29.199219 22.253906 29.464844 21.945312 C 29.777344 21.578125 30.113281 21.332031 30.449219 21.101562 C 30.84375 20.835938 31.238281 20.582031 31.632812 20.320312 C 31.65625 20.304688 31.675781 20.289062 31.699219 20.277344 C 31.699219 20.253906 31.703125 20.238281 31.703125 20.222656 C 31.699219 19.613281 31.71875 19.007812 31.6875 18.402344 C 31.660156 17.890625 31.605469 17.398438 31.484375 16.957031 C 31.332031 16.402344 31.113281 16.105469 30.828125 16.050781 C 30.597656 16.003906 30.375 16.054688 30.160156 16.273438 C 30.019531 16.414062 30.019531 16.414062 30.019531 16.757812 C 30.019531 17.601562 30.019531 18.441406 30.019531 19.28125 C 30.019531 19.339844 30.019531 19.398438 30.019531 19.464844 C 29.511719 19.464844 29.011719 19.464844 28.503906 19.464844 C 28.511719 19.136719 28.542969 18.828125 28.589844 18.527344 C 28.777344 17.324219 29.117188 16.410156 29.597656 15.765625 C 29.953125 15.289062 30.335938 15 30.746094 14.90625 C 31.109375 14.824219 31.472656 14.851562 31.828125 15.078125 C 32.074219 15.234375 32.300781 15.492188 32.5 15.859375 C 32.722656 16.269531 32.882812 16.777344 32.976562 17.40625 M 31.011719 21.820312 C 30.832031 21.976562 30.652344 22.152344 30.480469 22.363281 C 30.332031 22.550781 30.199219 22.777344 30.082031 23.0625 C 29.828125 23.675781 29.726562 24.398438 29.808594 25.230469 C 29.875 25.898438 30.058594 26.332031 30.351562 26.488281 C 30.578125 26.609375 30.800781 26.519531 31.007812 26.289062 C 31.308594 25.953125 31.523438 25.414062 31.6875 24.761719 C 31.699219 24.714844 31.703125 24.648438 31.703125 24.589844 C 31.703125 23.507812 31.703125 22.421875 31.703125 21.335938 C 31.703125 21.300781 31.703125 21.269531 31.699219 21.214844 C 31.46875 21.417969 31.246094 21.617188 31.011719 21.820312 Z M 31.011719 21.820312 "/>
<path style=" stroke:none;fill-rule:nonzero;fill:rgb(5.882353%,6.27451%,5.882353%);fill-opacity:1;" d="M 26.042969 17.902344 C 26.5625 16.324219 27.234375 15.304688 28.089844 14.914062 C 28.089844 16.089844 28.089844 17.253906 28.089844 18.4375 C 28.0625 18.4375 28.039062 18.4375 28.011719 18.4375 C 27.511719 18.4375 27.007812 18.4375 26.503906 18.433594 C 26.449219 18.433594 26.417969 18.464844 26.382812 18.558594 C 26.273438 18.847656 26.179688 19.160156 26.109375 19.507812 C 26.097656 19.570312 26.089844 19.640625 26.089844 19.710938 C 26.089844 22.164062 26.089844 24.613281 26.089844 27.066406 C 26.089844 27.109375 26.09375 27.152344 26.09375 27.210938 C 26.433594 27.210938 26.773438 27.210938 27.113281 27.210938 C 27.113281 27.535156 27.113281 27.84375 27.113281 28.160156 C 26.039062 28.160156 24.964844 28.160156 23.886719 28.160156 C 23.886719 27.847656 23.886719 27.535156 23.886719 27.207031 C 24.144531 27.207031 24.40625 27.207031 24.667969 27.207031 C 24.667969 23.730469 24.667969 20.277344 24.667969 16.808594 C 24.398438 16.550781 24.125 16.296875 23.851562 16.035156 C 23.851562 15.769531 23.851562 15.511719 23.851562 15.242188 C 24.558594 15.242188 25.261719 15.242188 25.976562 15.242188 C 25.910156 16.363281 25.84375 17.480469 25.773438 18.59375 C 25.84375 18.636719 25.84375 18.632812 25.875 18.519531 C 25.929688 18.316406 25.984375 18.117188 26.042969 17.902344 Z M 26.042969 17.902344 "/>
<path style=" stroke:none;fill-rule:nonzero;fill:rgb(6.27451%,6.666667%,6.27451%);fill-opacity:1;" d="M 8.035156 16.746094 C 8.394531 16.746094 8.75 16.746094 9.105469 16.746094 C 9.105469 17.90625 9.105469 19.054688 9.105469 20.207031 C 8.605469 20.207031 8.105469 20.207031 7.601562 20.207031 C 7.601562 19.054688 7.601562 17.910156 7.601562 16.746094 C 7.746094 16.746094 7.886719 16.746094 8.035156 16.746094 Z M 8.035156 16.746094 "/>
<path style=" stroke:none;fill-rule:nonzero;fill:rgb(69.01961%,95.686275%,63.529414%);fill-opacity:1;" d="M 20.15625 16.296875 C 20.511719 15.636719 21.148438 15.605469 21.527344 16.613281 C 21.675781 17.007812 21.773438 17.460938 21.855469 17.9375 C 21.960938 18.574219 22.019531 19.238281 22.058594 19.910156 C 22.101562 20.726562 22.109375 21.542969 22.097656 22.363281 C 22.078125 23.417969 22.019531 24.457031 21.855469 25.457031 C 21.785156 25.890625 21.699219 26.304688 21.574219 26.667969 C 21.417969 27.113281 21.226562 27.421875 20.976562 27.523438 C 20.574219 27.683594 20.234375 27.425781 19.972656 26.695312 C 19.828125 26.292969 19.734375 25.824219 19.664062 25.335938 C 19.5625 24.652344 19.507812 23.949219 19.476562 23.238281 C 19.441406 22.484375 19.4375 21.730469 19.449219 20.976562 C 19.46875 19.929688 19.53125 18.894531 19.691406 17.902344 C 19.75 17.539062 19.820312 17.191406 19.917969 16.875 C 19.984375 16.660156 20.0625 16.46875 20.15625 16.296875 Z M 20.15625 16.296875 "/>
<path style=" stroke:none;fill-rule:nonzero;fill:rgb(68.627453%,95.686275%,63.137257%);fill-opacity:1;" d="M 31.019531 21.816406 C 31.246094 21.617188 31.46875 21.417969 31.699219 21.214844 C 31.703125 21.269531 31.703125 21.300781 31.703125 21.335938 C 31.703125 22.421875 31.703125 23.507812 31.703125 24.589844 C 31.703125 24.648438 31.699219 24.714844 31.6875 24.761719 C 31.523438 25.414062 31.308594 25.953125 31.007812 26.289062 C 30.800781 26.519531 30.578125 26.609375 30.351562 26.488281 C 30.058594 26.332031 29.875 25.898438 29.808594 25.230469 C 29.726562 24.398438 29.828125 23.675781 30.082031 23.0625 C 30.199219 22.777344 30.332031 22.550781 30.480469 22.363281 C 30.652344 22.152344 30.832031 21.976562 31.019531 21.816406 Z M 31.019531 21.816406 "/>
</g>
</svg>
