<?xml version="1.0" encoding="UTF-8"?>
<svg xmlns="http://www.w3.org/2000/svg" xmlns:xlink="http://www.w3.org/1999/xlink" width="38px" height="38px" viewBox="0 0 38 38" version="1.1">
<g id="surface1">
<path style=" stroke:none;fill-rule:nonzero;fill:rgb(21.568628%,57.647061%,70.588237%);fill-opacity:1;" d="M 18.460938 6.828125 L 19.667969 6.828125 L 20.429688 6.902344 L 21.226562 7.03125 L 21.875 7.179688 L 22.394531 7.328125 L 22.96875 7.53125 L 23.878906 7.921875 L 24.304688 8.144531 L 24.734375 8.386719 L 25.160156 8.648438 L 25.382812 8.796875 L 25.625 8.980469 L 25.921875 9.203125 L 26.21875 9.445312 L 26.460938 9.648438 L 26.609375 9.796875 L 26.757812 9.925781 L 26.90625 10.074219 L 27.035156 10.222656 L 27.238281 10.445312 L 27.367188 10.59375 L 27.609375 10.890625 L 27.8125 11.171875 L 28.074219 11.539062 L 28.277344 11.875 L 28.460938 12.191406 L 28.742188 12.710938 L 28.984375 13.265625 L 29.167969 13.75 L 29.316406 14.210938 L 29.429688 14.640625 L 29.558594 15.289062 L 29.648438 16.140625 L 29.667969 16.289062 L 30.078125 16.234375 L 30.949219 16.234375 L 31.507812 16.289062 L 31.988281 16.367188 L 32.339844 16.4375 L 32.824219 16.585938 L 33.34375 16.792969 L 33.65625 16.941406 L 34.085938 17.179688 L 34.363281 17.347656 L 34.679688 17.570312 L 34.976562 17.8125 L 35.179688 17.980469 L 35.476562 18.257812 L 35.71875 18.5 L 35.882812 18.703125 L 36.109375 18.980469 L 36.347656 19.316406 L 36.589844 19.6875 L 36.8125 20.078125 L 37.070312 20.613281 L 37.257812 21.078125 L 37.40625 21.542969 L 37.515625 21.96875 L 37.59375 22.433594 L 37.648438 23.027344 L 37.664062 23.453125 L 37.664062 23.804688 L 37.648438 24.214844 L 37.574219 24.789062 L 37.460938 25.328125 L 37.296875 25.921875 L 37.148438 26.3125 L 36.921875 26.8125 L 36.644531 27.332031 L 36.496094 27.554688 L 36.292969 27.851562 L 36.109375 28.09375 L 35.867188 28.371094 L 35.644531 28.609375 L 35.4375 28.816406 L 35.234375 28.984375 L 35.011719 29.167969 L 34.640625 29.445312 L 34.382812 29.613281 L 34.101562 29.78125 L 33.804688 29.929688 L 33.453125 30.09375 L 33.027344 30.261719 L 32.453125 30.449219 L 32.023438 30.558594 L 31.578125 30.632812 L 31.023438 30.6875 L 30.726562 30.707031 L 8.035156 30.707031 L 7.515625 30.671875 L 6.9375 30.597656 L 6.421875 30.484375 L 6.011719 30.375 L 5.53125 30.207031 L 5.121094 30.039062 L 4.710938 29.855469 L 4.304688 29.632812 L 3.988281 29.445312 L 3.671875 29.222656 L 3.414062 29.039062 L 3.226562 28.890625 L 2.710938 28.445312 L 2.335938 28.074219 L 2.207031 27.925781 L 2.039062 27.71875 L 1.855469 27.5 L 1.613281 27.164062 L 1.429688 26.886719 L 1.261719 26.609375 L 1.039062 26.179688 L 0.871094 25.828125 L 0.722656 25.457031 L 0.59375 25.105469 L 0.40625 24.4375 L 0.277344 23.730469 L 0.222656 23.210938 L 0.203125 22.859375 L 0.203125 22.5625 L 0.257812 21.632812 L 0.335938 21.097656 L 0.464844 20.484375 L 0.632812 19.910156 L 0.851562 19.296875 L 1 18.960938 L 1.167969 18.609375 L 1.410156 18.183594 L 1.632812 17.851562 L 1.890625 17.476562 L 2.132812 17.164062 L 2.355469 16.902344 L 2.5625 16.679688 L 2.96875 16.273438 L 3.171875 16.105469 L 3.46875 15.863281 L 3.804688 15.625 L 4.210938 15.363281 L 4.507812 15.195312 L 4.972656 14.972656 L 5.492188 14.769531 L 6.011719 14.601562 L 6.457031 14.507812 L 6.921875 14.4375 L 7.253906 14.398438 L 7.53125 14.378906 L 8.144531 14.378906 L 8.589844 14.417969 L 9.054688 14.507812 L 9.148438 14.507812 L 9.257812 14.0625 L 9.554688 13.171875 L 9.742188 12.726562 L 9.890625 12.429688 L 10.054688 12.117188 L 10.261719 11.78125 L 10.484375 11.449219 L 10.6875 11.152344 L 10.910156 10.855469 L 11.058594 10.667969 L 11.226562 10.464844 L 11.429688 10.242188 L 11.558594 10.09375 L 11.671875 9.964844 L 11.707031 9.964844 L 11.746094 9.890625 L 11.78125 9.890625 L 11.800781 9.835938 L 11.949219 9.703125 L 12.226562 9.445312 L 12.375 9.3125 L 12.636719 9.09375 L 12.894531 8.886719 L 13.25 8.628906 L 13.636719 8.386719 L 13.914062 8.21875 L 14.359375 7.976562 L 14.65625 7.828125 L 15.011719 7.664062 L 15.398438 7.515625 L 16.070312 7.292969 L 16.550781 7.144531 L 17.03125 7.03125 L 17.757812 6.902344 L 18.21875 6.847656 Z M 18.796875 11.914062 L 18.367188 11.984375 L 18.015625 12.078125 L 17.71875 12.191406 L 17.257812 12.414062 L 17.03125 12.542969 L 16.792969 12.710938 L 16.585938 12.875 L 16.179688 13.285156 L 15.9375 13.601562 L 15.714844 13.953125 L 15.605469 14.140625 L 15.382812 14.65625 L 15.25 15.101562 L 15.195312 15.417969 L 15.179688 15.640625 L 15.179688 16.160156 L 15.269531 16.753906 L 15.398438 17.238281 L 15.585938 17.703125 L 15.789062 18.109375 L 15.976562 18.40625 L 16.140625 18.628906 L 16.289062 18.8125 L 16.496094 19.039062 L 16.71875 19.257812 L 16.71875 19.296875 L 16.496094 19.351562 L 16.140625 19.484375 L 15.679688 19.703125 L 15.382812 19.871094 L 15.046875 20.09375 L 14.695312 20.355469 L 14.4375 20.558594 L 14.195312 20.78125 L 13.992188 20.984375 L 13.859375 21.132812 L 13.636719 21.394531 L 13.433594 21.671875 L 13.171875 22.0625 L 12.96875 22.414062 L 12.804688 22.710938 L 12.597656 23.175781 L 12.429688 23.621094 L 12.265625 24.195312 L 12.117188 24.863281 L 12.023438 25.53125 L 11.984375 26.050781 L 11.984375 26.699219 L 12.042969 26.996094 L 12.152344 27.183594 L 12.359375 27.332031 L 12.488281 27.386719 L 15.121094 27.40625 L 23.378906 27.40625 L 25.867188 27.386719 L 26.085938 27.351562 L 26.234375 27.273438 L 26.402344 27.125 L 26.496094 26.941406 L 26.515625 26.867188 L 26.53125 26.625 L 26.53125 26.105469 L 26.476562 25.511719 L 26.347656 24.734375 L 26.199219 24.140625 L 26.015625 23.546875 L 25.808594 23.046875 L 25.585938 22.5625 L 25.421875 22.246094 L 25.179688 21.859375 L 24.9375 21.523438 L 24.769531 21.320312 L 24.53125 21.058594 L 24.363281 20.855469 L 24.15625 20.652344 L 23.953125 20.484375 L 23.730469 20.296875 L 23.398438 20.078125 L 23.082031 19.871094 L 22.75 19.6875 L 22.523438 19.574219 L 22.171875 19.425781 L 21.78125 19.296875 L 21.746094 19.296875 L 21.875 19.148438 L 22.097656 18.90625 L 22.226562 18.757812 L 22.46875 18.425781 L 22.636719 18.148438 L 22.820312 17.792969 L 23.007812 17.3125 L 23.136719 16.847656 L 23.210938 16.421875 L 23.25 15.902344 L 23.210938 15.476562 L 23.117188 15.011719 L 23.007812 14.640625 L 22.839844 14.25 L 22.65625 13.898438 L 22.414062 13.546875 L 22.210938 13.285156 L 22.0625 13.117188 L 21.914062 12.988281 L 21.632812 12.765625 L 21.246094 12.507812 L 20.835938 12.28125 L 20.445312 12.132812 L 20.113281 12.023438 L 19.851562 11.96875 L 19.445312 11.914062 Z M 18.796875 11.914062 "/>
<path style=" stroke:none;fill-rule:nonzero;fill:rgb(21.568628%,57.647061%,70.588237%);fill-opacity:1;" d="M 19.316406 20.242188 L 19.703125 20.261719 L 20.039062 20.296875 L 20.410156 20.375 L 20.929688 20.503906 L 21.300781 20.632812 L 21.726562 20.820312 L 22.15625 21.039062 L 22.507812 21.265625 L 22.75 21.449219 L 22.988281 21.652344 L 23.230469 21.875 L 23.621094 22.265625 L 23.859375 22.582031 L 24.046875 22.859375 L 24.214844 23.136719 L 24.417969 23.527344 L 24.585938 23.917969 L 24.789062 24.53125 L 24.898438 25.046875 L 24.957031 25.476562 L 24.992188 25.808594 L 24.992188 25.9375 L 24.808594 25.957031 L 13.507812 25.957031 L 13.488281 25.902344 L 13.546875 25.402344 L 13.636719 24.863281 L 13.75 24.398438 L 13.878906 23.972656 L 14.082031 23.472656 L 14.230469 23.175781 L 14.4375 22.820312 L 14.621094 22.5625 L 14.882812 22.226562 L 15.046875 22.042969 L 15.546875 21.542969 L 15.808594 21.335938 L 16.140625 21.097656 L 16.496094 20.890625 L 16.792969 20.742188 L 17.164062 20.59375 L 17.738281 20.429688 L 18.164062 20.335938 L 18.515625 20.28125 L 18.703125 20.261719 Z M 19.316406 20.242188 "/>
<path style=" stroke:none;fill-rule:nonzero;fill:rgb(21.568628%,57.647061%,70.588237%);fill-opacity:1;" d="M 18.960938 13.546875 L 19.445312 13.546875 L 19.796875 13.601562 L 20.113281 13.695312 L 20.539062 13.898438 L 20.800781 14.082031 L 20.984375 14.25 L 21.152344 14.4375 L 21.320312 14.675781 L 21.46875 14.9375 L 21.597656 15.25 L 21.671875 15.605469 L 21.671875 16.253906 L 21.578125 16.664062 L 21.449219 17.015625 L 21.300781 17.273438 L 21.152344 17.476562 L 20.949219 17.703125 L 20.742188 17.886719 L 20.445312 18.070312 L 20.113281 18.21875 L 19.761719 18.332031 L 19.539062 18.367188 L 19.074219 18.386719 L 18.59375 18.332031 L 18.089844 18.164062 L 17.792969 18 L 17.609375 17.851562 L 17.386719 17.644531 L 17.21875 17.441406 L 17.050781 17.199219 L 16.902344 16.902344 L 16.773438 16.476562 L 16.734375 16.253906 L 16.734375 15.679688 L 16.792969 15.363281 L 16.921875 14.972656 L 17.109375 14.640625 L 17.3125 14.359375 L 17.554688 14.121094 L 17.703125 13.992188 L 18 13.824219 L 18.296875 13.695312 L 18.574219 13.601562 Z M 18.960938 13.546875 "/>
<path style=" stroke:none;fill-rule:nonzero;fill:rgb(12.54902%,50.980395%,65.490198%);fill-opacity:1;" d="M 7.292969 14.453125 L 8.351562 14.453125 L 8.71875 14.492188 L 9.109375 14.566406 L 9.148438 14.601562 L 8.628906 14.566406 L 8.257812 14.527344 L 7.441406 14.527344 L 7.328125 14.546875 L 6.773438 14.585938 L 6.382812 14.65625 L 6.105469 14.734375 L 5.898438 14.789062 L 5.4375 14.9375 L 5.046875 15.085938 L 4.769531 15.214844 L 4.472656 15.363281 L 4.210938 15.511719 L 4.007812 15.640625 L 3.65625 15.882812 L 3.359375 16.105469 L 3.171875 16.273438 L 3.023438 16.402344 L 2.988281 16.402344 L 2.96875 16.457031 L 2.820312 16.585938 L 2.765625 16.664062 L 2.726562 16.664062 L 2.691406 16.734375 L 2.46875 16.960938 L 2.335938 17.109375 L 2.246094 17.21875 L 2.207031 17.21875 L 2.171875 17.292969 L 1.96875 17.554688 L 1.820312 17.757812 L 1.671875 17.980469 L 1.578125 18.148438 L 1.375 18.480469 L 1.207031 18.796875 L 0.945312 19.40625 L 0.851562 19.648438 L 0.761719 19.871094 L 0.648438 20.261719 L 0.574219 20.539062 L 0.464844 21.097656 L 0.390625 21.691406 L 0.335938 22.542969 L 0.335938 22.933594 L 0.351562 23.25 L 0.425781 23.789062 L 0.539062 24.417969 L 0.703125 24.992188 L 0.835938 25.363281 L 0.984375 25.734375 L 1.113281 26.050781 L 1.335938 26.460938 L 1.613281 26.941406 L 1.761719 27.125 L 1.949219 27.40625 L 2.132812 27.664062 L 2.449219 27.980469 L 2.542969 28.09375 L 2.632812 28.183594 L 2.726562 28.257812 L 2.820312 28.371094 L 2.859375 28.390625 L 2.859375 28.425781 L 2.929688 28.460938 L 2.988281 28.519531 L 2.988281 28.554688 L 3.0625 28.59375 L 3.136719 28.667969 L 3.265625 28.742188 L 3.394531 28.851562 L 3.394531 28.890625 L 3.46875 28.90625 L 3.46875 28.945312 L 3.542969 28.964844 L 3.691406 29.074219 L 3.785156 29.132812 L 3.878906 29.203125 L 4.136719 29.351562 L 4.136719 29.390625 L 4.230469 29.429688 L 4.546875 29.59375 L 4.84375 29.742188 L 5.15625 29.890625 L 5.363281 29.984375 L 5.679688 30.09375 L 5.828125 30.152344 L 6.085938 30.242188 L 6.234375 30.28125 L 6.71875 30.390625 L 7.125 30.46875 L 7.292969 30.503906 L 7.679688 30.558594 L 7.90625 30.578125 L 22.617188 30.597656 L 22.671875 30.617188 L 22.75 30.597656 L 22.804688 30.617188 L 23.007812 30.617188 L 23.082031 30.597656 L 23.101562 30.617188 L 23.398438 30.617188 L 23.527344 30.597656 L 23.601562 30.617188 L 23.730469 30.597656 L 23.769531 30.617188 L 23.953125 30.617188 L 24.046875 30.597656 L 30.429688 30.597656 L 31.0625 30.578125 L 31.394531 30.539062 L 31.914062 30.449219 L 32.65625 30.242188 L 33.269531 30.023438 L 33.75 29.796875 L 34.066406 29.632812 L 34.308594 29.484375 L 34.476562 29.390625 L 34.625 29.28125 L 34.714844 29.242188 L 34.714844 29.203125 L 34.882812 29.074219 L 34.902344 29.039062 L 35.03125 28.964844 L 35.085938 28.90625 L 35.125 28.90625 L 35.125 28.871094 L 35.328125 28.703125 L 35.367188 28.703125 L 35.382812 28.648438 L 35.570312 28.5 L 35.679688 28.332031 L 35.753906 28.257812 L 35.792969 28.257812 L 35.8125 28.203125 L 35.847656 28.203125 L 35.882812 28.128906 L 35.921875 28.074219 L 35.960938 28.074219 L 35.960938 28.035156 L 35.996094 28.035156 L 36.03125 27.960938 L 36.125 27.832031 L 36.164062 27.832031 L 36.179688 27.757812 L 36.257812 27.628906 L 36.292969 27.628906 L 36.328125 27.535156 L 36.386719 27.421875 L 36.421875 27.421875 L 36.460938 27.332031 L 36.570312 27.144531 L 36.589844 27.089844 L 36.625 27.089844 L 36.664062 26.976562 L 36.8125 26.71875 L 37 26.273438 L 37.164062 25.828125 L 37.3125 25.328125 L 37.351562 25.195312 L 37.445312 24.808594 L 37.515625 24.195312 L 37.515625 23.101562 L 37.445312 22.375 L 37.367188 21.929688 L 37.277344 21.542969 L 37.128906 21.097656 L 36.921875 20.613281 L 36.8125 20.335938 L 36.683594 20.078125 L 36.570312 19.910156 L 36.460938 19.703125 L 36.273438 19.425781 L 36.089844 19.167969 L 35.976562 19.019531 L 35.976562 18.980469 L 35.921875 18.960938 L 35.8125 18.8125 L 35.8125 18.777344 L 35.773438 18.777344 L 35.625 18.59375 L 35.550781 18.515625 L 35.550781 18.480469 L 35.515625 18.480469 L 35.4375 18.40625 L 35.4375 18.367188 L 35.367188 18.332031 L 35.050781 18.015625 L 34.882812 17.886719 L 34.828125 17.851562 L 34.828125 17.8125 L 34.734375 17.773438 L 34.511719 17.609375 L 34.085938 17.328125 L 33.65625 17.089844 L 33.269531 16.902344 L 33.046875 16.8125 L 32.675781 16.679688 L 32.285156 16.585938 L 31.875 16.496094 L 31.394531 16.421875 L 30.914062 16.382812 L 29.667969 16.382812 L 29.667969 16.347656 L 29.707031 16.347656 L 29.707031 16.308594 L 30.058594 16.289062 L 30.875 16.289062 L 31.507812 16.347656 L 32.042969 16.4375 L 32.527344 16.550781 L 32.765625 16.625 L 32.933594 16.664062 L 33.417969 16.867188 L 33.789062 17.050781 L 33.953125 17.144531 L 34.066406 17.164062 L 34.417969 17.386719 L 34.695312 17.589844 L 34.957031 17.792969 L 35.199219 18 L 35.476562 18.257812 L 35.71875 18.5 L 35.882812 18.703125 L 36.109375 18.980469 L 36.347656 19.316406 L 36.589844 19.6875 L 36.8125 20.078125 L 37.070312 20.613281 L 37.257812 21.078125 L 37.40625 21.542969 L 37.515625 21.96875 L 37.59375 22.433594 L 37.648438 23.027344 L 37.664062 23.453125 L 37.664062 23.804688 L 37.648438 24.214844 L 37.574219 24.789062 L 37.460938 25.328125 L 37.296875 25.921875 L 37.148438 26.3125 L 36.921875 26.8125 L 36.644531 27.332031 L 36.496094 27.554688 L 36.292969 27.851562 L 36.109375 28.09375 L 35.867188 28.371094 L 35.644531 28.609375 L 35.4375 28.816406 L 35.234375 28.984375 L 35.011719 29.167969 L 34.640625 29.445312 L 34.382812 29.613281 L 34.101562 29.78125 L 33.804688 29.929688 L 33.453125 30.09375 L 33.027344 30.261719 L 32.453125 30.449219 L 32.023438 30.558594 L 31.578125 30.632812 L 31.023438 30.6875 L 30.726562 30.707031 L 8.035156 30.707031 L 7.515625 30.671875 L 6.9375 30.597656 L 6.421875 30.484375 L 6.011719 30.375 L 5.53125 30.207031 L 5.121094 30.039062 L 4.710938 29.855469 L 4.304688 29.632812 L 3.988281 29.445312 L 3.671875 29.222656 L 3.414062 29.039062 L 3.226562 28.890625 L 2.710938 28.445312 L 2.335938 28.074219 L 2.207031 27.925781 L 2.039062 27.71875 L 1.855469 27.5 L 1.613281 27.164062 L 1.429688 26.886719 L 1.261719 26.609375 L 1.039062 26.179688 L 0.871094 25.828125 L 0.722656 25.457031 L 0.59375 25.105469 L 0.40625 24.4375 L 0.277344 23.730469 L 0.222656 23.210938 L 0.203125 22.859375 L 0.203125 22.5625 L 0.257812 21.632812 L 0.335938 21.097656 L 0.464844 20.484375 L 0.632812 19.910156 L 0.851562 19.296875 L 1 18.960938 L 1.167969 18.609375 L 1.410156 18.183594 L 1.632812 17.851562 L 1.890625 17.476562 L 2.132812 17.164062 L 2.355469 16.902344 L 2.5625 16.679688 L 2.96875 16.273438 L 3.171875 16.105469 L 3.46875 15.863281 L 3.804688 15.625 L 4.210938 15.363281 L 4.507812 15.195312 L 4.972656 14.972656 L 5.492188 14.769531 L 5.601562 14.75 L 5.585938 14.789062 L 5.789062 14.734375 L 6.34375 14.585938 L 6.902344 14.492188 Z M 7.292969 14.453125 "/>
<path style=" stroke:none;fill-rule:nonzero;fill:rgb(12.54902%,50.980395%,65.490198%);fill-opacity:1;" d="M 19.128906 11.78125 L 19.519531 11.800781 L 19.703125 11.835938 L 19.984375 11.875 L 20.113281 11.914062 L 20.523438 12.023438 L 20.800781 12.152344 L 21.003906 12.226562 L 21.207031 12.339844 L 21.28125 12.394531 L 21.523438 12.523438 L 21.578125 12.578125 L 21.746094 12.691406 L 21.894531 12.820312 L 21.929688 12.839844 L 21.929688 12.875 L 22.007812 12.914062 L 22.007812 12.953125 L 22.0625 12.96875 L 22.226562 13.171875 L 22.394531 13.339844 L 22.394531 13.378906 L 22.453125 13.398438 L 22.542969 13.5625 L 22.691406 13.765625 L 22.96875 14.269531 L 23.101562 14.566406 L 23.25 15.03125 L 23.324219 15.457031 L 23.34375 15.679688 L 23.34375 16.160156 L 23.324219 16.457031 L 23.265625 16.8125 L 23.210938 16.976562 L 23.15625 17.199219 L 23.0625 17.441406 L 23.007812 17.644531 L 22.878906 17.921875 L 22.765625 18.148438 L 22.636719 18.351562 L 22.488281 18.554688 L 22.453125 18.609375 L 22.414062 18.609375 L 22.375 18.722656 L 22.246094 18.890625 L 22.210938 18.890625 L 22.171875 18.960938 L 22.007812 19.167969 L 22.023438 19.257812 L 22.171875 19.296875 L 22.339844 19.351562 L 22.523438 19.445312 L 22.804688 19.574219 L 23.117188 19.742188 L 23.136719 19.796875 L 23.195312 19.78125 L 23.378906 19.910156 L 23.675781 20.113281 L 23.75 20.167969 L 23.75 20.207031 L 23.84375 20.242188 L 23.953125 20.316406 L 23.953125 20.355469 L 24.007812 20.375 L 24.007812 20.410156 L 24.066406 20.429688 L 24.066406 20.464844 L 24.140625 20.503906 L 24.585938 20.949219 L 24.714844 21.097656 L 24.863281 21.265625 L 24.9375 21.355469 L 24.9375 21.394531 L 24.992188 21.414062 L 25.140625 21.632812 L 25.214844 21.726562 L 25.421875 22.042969 L 25.699219 22.542969 L 25.808594 22.765625 L 25.9375 23.0625 L 26.015625 23.210938 L 26.125 23.507812 L 26.273438 23.992188 L 26.402344 24.472656 L 26.476562 24.84375 L 26.570312 25.402344 L 26.644531 26.105469 L 26.644531 26.757812 L 26.589844 26.976562 L 26.476562 27.203125 L 26.402344 27.292969 L 26.21875 27.421875 L 26.015625 27.480469 L 25.847656 27.515625 L 25.605469 27.535156 L 24.25 27.554688 L 14.472656 27.554688 L 12.710938 27.535156 L 12.449219 27.480469 L 12.265625 27.40625 L 12.117188 27.292969 L 12.003906 27.144531 L 11.914062 26.921875 L 11.855469 26.625 L 11.855469 26.3125 L 11.875 26.21875 L 11.914062 25.640625 L 11.949219 25.179688 L 12.003906 24.769531 L 12.152344 24.101562 L 12.226562 23.804688 L 12.28125 23.695312 L 12.359375 23.453125 L 12.375 23.34375 L 12.414062 23.34375 L 12.449219 23.175781 L 12.507812 23.046875 L 12.542969 22.96875 L 12.636719 22.730469 L 12.746094 22.542969 L 12.875 22.285156 L 12.988281 22.117188 L 13.101562 21.929688 L 13.15625 21.820312 L 13.25 21.710938 L 13.265625 21.652344 L 13.359375 21.5625 L 13.398438 21.484375 L 13.433594 21.46875 L 13.46875 21.375 L 13.546875 21.28125 L 13.582031 21.28125 L 13.601562 21.207031 L 13.636719 21.207031 L 13.65625 21.132812 L 13.710938 21.132812 L 13.730469 21.058594 L 13.898438 20.910156 L 13.972656 20.800781 L 14.046875 20.761719 L 14.082031 20.6875 L 14.121094 20.6875 L 14.15625 20.613281 L 14.34375 20.464844 L 14.546875 20.296875 L 14.75 20.148438 L 15.046875 19.929688 L 15.214844 19.816406 L 15.417969 19.703125 L 15.605469 19.59375 L 16.179688 19.335938 L 16.347656 19.257812 L 16.402344 19.1875 L 16.4375 19.1875 L 16.421875 19.074219 L 16.253906 18.945312 L 16.125 18.796875 L 15.902344 18.5 L 15.734375 18.21875 L 15.585938 17.960938 L 15.4375 17.664062 L 15.34375 17.421875 L 15.289062 17.292969 L 15.195312 16.976562 L 15.160156 16.753906 L 15.121094 16.625 L 15.101562 16.347656 L 15.066406 16.234375 L 15.066406 15.679688 L 15.140625 15.011719 L 15.179688 14.84375 L 15.234375 14.640625 L 15.308594 14.492188 L 15.398438 14.269531 L 15.566406 13.953125 L 15.585938 13.898438 L 15.625 13.898438 L 15.660156 13.765625 L 15.828125 13.527344 L 15.9375 13.339844 L 16.011719 13.265625 L 16.050781 13.265625 L 16.085938 13.191406 L 16.347656 12.914062 L 16.382812 12.914062 L 16.421875 12.839844 L 16.570312 12.710938 L 16.8125 12.542969 L 16.996094 12.414062 L 17.738281 12.042969 L 18.148438 11.914062 L 18.554688 11.835938 L 18.777344 11.800781 Z M 18.796875 11.914062 L 18.367188 11.984375 L 18.015625 12.078125 L 17.71875 12.191406 L 17.257812 12.414062 L 17.03125 12.542969 L 16.792969 12.710938 L 16.585938 12.875 L 16.179688 13.285156 L 15.9375 13.601562 L 15.714844 13.953125 L 15.605469 14.140625 L 15.382812 14.65625 L 15.25 15.101562 L 15.195312 15.417969 L 15.179688 15.640625 L 15.179688 16.160156 L 15.269531 16.753906 L 15.398438 17.238281 L 15.585938 17.703125 L 15.789062 18.109375 L 15.976562 18.40625 L 16.140625 18.628906 L 16.289062 18.8125 L 16.496094 19.039062 L 16.71875 19.257812 L 16.71875 19.296875 L 16.496094 19.351562 L 16.140625 19.484375 L 15.679688 19.703125 L 15.382812 19.871094 L 15.046875 20.09375 L 14.695312 20.355469 L 14.4375 20.558594 L 14.195312 20.78125 L 13.992188 20.984375 L 13.859375 21.132812 L 13.636719 21.394531 L 13.433594 21.671875 L 13.171875 22.0625 L 12.96875 22.414062 L 12.804688 22.710938 L 12.597656 23.175781 L 12.429688 23.621094 L 12.265625 24.195312 L 12.117188 24.863281 L 12.023438 25.53125 L 11.984375 26.050781 L 11.984375 26.699219 L 12.042969 26.996094 L 12.152344 27.183594 L 12.359375 27.332031 L 12.488281 27.386719 L 15.121094 27.40625 L 23.378906 27.40625 L 25.867188 27.386719 L 26.085938 27.351562 L 26.234375 27.273438 L 26.402344 27.125 L 26.496094 26.941406 L 26.515625 26.867188 L 26.53125 26.625 L 26.53125 26.105469 L 26.476562 25.511719 L 26.347656 24.734375 L 26.199219 24.140625 L 26.015625 23.546875 L 25.808594 23.046875 L 25.585938 22.5625 L 25.421875 22.246094 L 25.179688 21.859375 L 24.9375 21.523438 L 24.769531 21.320312 L 24.53125 21.058594 L 24.363281 20.855469 L 24.15625 20.652344 L 23.953125 20.484375 L 23.730469 20.296875 L 23.398438 20.078125 L 23.082031 19.871094 L 22.75 19.6875 L 22.523438 19.574219 L 22.171875 19.425781 L 21.78125 19.296875 L 21.746094 19.296875 L 21.875 19.148438 L 22.097656 18.90625 L 22.226562 18.757812 L 22.46875 18.425781 L 22.636719 18.148438 L 22.820312 17.792969 L 23.007812 17.3125 L 23.136719 16.847656 L 23.210938 16.421875 L 23.25 15.902344 L 23.210938 15.476562 L 23.117188 15.011719 L 23.007812 14.640625 L 22.839844 14.25 L 22.65625 13.898438 L 22.414062 13.546875 L 22.210938 13.285156 L 22.0625 13.117188 L 21.914062 12.988281 L 21.632812 12.765625 L 21.246094 12.507812 L 20.835938 12.28125 L 20.445312 12.132812 L 20.113281 12.023438 L 19.851562 11.96875 L 19.445312 11.914062 Z M 18.796875 11.914062 "/>
<path style=" stroke:none;fill-rule:nonzero;fill:rgb(18.82353%,54.509807%,67.843139%);fill-opacity:1;" d="M 18.460938 6.828125 L 19.667969 6.828125 L 20.429688 6.902344 L 21.226562 7.03125 L 21.875 7.179688 L 22.394531 7.328125 L 22.96875 7.53125 L 23.878906 7.921875 L 24.304688 8.144531 L 24.734375 8.386719 L 25.160156 8.648438 L 25.382812 8.796875 L 25.625 8.980469 L 25.921875 9.203125 L 26.21875 9.445312 L 26.460938 9.648438 L 26.609375 9.796875 L 26.757812 9.925781 L 26.90625 10.074219 L 27.035156 10.222656 L 27.238281 10.445312 L 27.367188 10.59375 L 27.609375 10.890625 L 27.8125 11.171875 L 28.074219 11.539062 L 28.277344 11.875 L 28.460938 12.191406 L 28.742188 12.710938 L 28.984375 13.265625 L 29.167969 13.75 L 29.316406 14.210938 L 29.429688 14.640625 L 29.558594 15.289062 L 29.648438 16.140625 L 29.667969 16.289062 L 30.078125 16.234375 L 30.949219 16.234375 L 31.507812 16.289062 L 31.988281 16.367188 L 32.339844 16.4375 L 32.824219 16.585938 L 33.34375 16.792969 L 33.65625 16.941406 L 33.992188 17.125 L 33.992188 17.164062 L 33.898438 17.125 L 33.601562 16.976562 L 33.25 16.8125 L 32.898438 16.664062 L 32.710938 16.625 L 32.230469 16.496094 L 31.746094 16.402344 L 31.320312 16.347656 L 30.875 16.308594 L 29.707031 16.308594 L 29.707031 16.347656 L 29.59375 16.367188 L 29.519531 16.179688 L 29.484375 15.863281 L 29.410156 15.25 L 29.296875 14.65625 L 29.1875 14.25 L 28.964844 13.601562 L 28.851562 13.304688 L 28.667969 12.859375 L 28.609375 12.765625 L 28.554688 12.636719 L 28.40625 12.359375 L 28.3125 12.171875 L 28.203125 12.003906 L 28.109375 11.835938 L 28.015625 11.6875 L 27.90625 11.523438 L 27.703125 11.226562 L 27.480469 10.929688 L 27.40625 10.855469 L 27.40625 10.816406 L 27.367188 10.816406 L 27.183594 10.578125 L 27.015625 10.390625 L 26.886719 10.242188 L 26.515625 9.871094 L 26.476562 9.851562 L 26.476562 9.816406 L 26.402344 9.777344 L 26.21875 9.628906 L 26.125 9.539062 L 25.957031 9.390625 L 25.71875 9.203125 L 25.421875 8.980469 L 25.125 8.777344 L 24.863281 8.609375 L 24.546875 8.421875 L 24.101562 8.183594 L 23.804688 8.035156 L 23.195312 7.757812 L 22.878906 7.644531 L 22.488281 7.496094 L 22.097656 7.382812 L 21.859375 7.3125 L 21.726562 7.292969 L 21.617188 7.253906 L 21.171875 7.164062 L 20.671875 7.070312 L 20.242188 7.015625 L 20.019531 6.996094 L 19.871094 6.976562 L 19.667969 6.976562 L 19.371094 6.957031 L 19.296875 6.976562 L 18.296875 6.976562 L 18.128906 6.996094 L 17.867188 7.015625 L 17.292969 7.125 L 16.792969 7.234375 L 16.367188 7.347656 L 15.863281 7.496094 L 15.066406 7.773438 L 14.898438 7.847656 L 14.472656 8.054688 L 14.195312 8.203125 L 13.972656 8.3125 L 13.84375 8.40625 L 13.636719 8.515625 L 13.136719 8.851562 L 12.933594 9.015625 L 12.671875 9.222656 L 12.5625 9.3125 L 12.523438 9.3125 L 12.523438 9.351562 L 12.375 9.480469 L 12.132812 9.703125 L 12.097656 9.703125 L 12.097656 9.742188 L 11.949219 9.871094 L 11.539062 10.28125 L 11.410156 10.429688 L 11.1875 10.6875 L 11.023438 10.890625 L 10.910156 11.039062 L 10.726562 11.28125 L 10.539062 11.578125 L 10.390625 11.78125 L 10.261719 12.003906 L 10.113281 12.246094 L 9.964844 12.542969 L 9.6875 13.117188 L 9.574219 13.414062 L 9.5 13.710938 L 9.332031 14.230469 L 9.242188 14.566406 L 9.203125 14.585938 L 9.222656 14.417969 L 9.332031 13.992188 L 9.460938 13.582031 L 9.519531 13.265625 L 9.722656 12.765625 L 9.871094 12.46875 L 10.054688 12.117188 L 10.261719 11.78125 L 10.484375 11.449219 L 10.6875 11.152344 L 10.910156 10.855469 L 11.058594 10.667969 L 11.226562 10.464844 L 11.429688 10.242188 L 11.558594 10.09375 L 11.671875 9.964844 L 11.707031 9.964844 L 11.746094 9.890625 L 11.78125 9.890625 L 11.800781 9.835938 L 11.949219 9.703125 L 12.226562 9.445312 L 12.375 9.3125 L 12.636719 9.09375 L 12.894531 8.886719 L 13.25 8.628906 L 13.636719 8.386719 L 13.914062 8.21875 L 14.359375 7.976562 L 14.65625 7.828125 L 15.011719 7.664062 L 15.398438 7.515625 L 16.070312 7.292969 L 16.550781 7.144531 L 17.03125 7.03125 L 17.757812 6.902344 L 18.21875 6.847656 Z M 18.460938 6.828125 "/>
<path style=" stroke:none;fill-rule:nonzero;fill:rgb(10.588235%,49.803922%,64.705884%);fill-opacity:1;" d="M 19.316406 20.242188 L 19.703125 20.261719 L 20.039062 20.296875 L 20.410156 20.375 L 20.929688 20.503906 L 21.300781 20.632812 L 21.726562 20.820312 L 22.15625 21.039062 L 22.507812 21.265625 L 22.75 21.449219 L 22.988281 21.652344 L 23.230469 21.875 L 23.621094 22.265625 L 23.859375 22.582031 L 24.046875 22.859375 L 24.214844 23.136719 L 24.417969 23.527344 L 24.585938 23.917969 L 24.789062 24.53125 L 24.898438 25.046875 L 24.957031 25.476562 L 24.992188 25.808594 L 24.992188 25.9375 L 24.808594 25.957031 L 13.507812 25.957031 L 13.488281 25.902344 L 13.546875 25.402344 L 13.636719 24.863281 L 13.75 24.398438 L 13.878906 23.972656 L 14.082031 23.472656 L 14.230469 23.175781 L 14.4375 22.820312 L 14.621094 22.5625 L 14.882812 22.226562 L 15.046875 22.042969 L 15.546875 21.542969 L 15.808594 21.335938 L 16.140625 21.097656 L 16.496094 20.890625 L 16.792969 20.742188 L 17.164062 20.59375 L 17.738281 20.429688 L 18.164062 20.335938 L 18.515625 20.28125 L 18.703125 20.261719 Z M 18.683594 20.390625 L 18.128906 20.464844 L 17.664062 20.578125 L 17.089844 20.742188 L 16.71875 20.890625 L 16.367188 21.078125 L 16.140625 21.226562 L 15.992188 21.335938 L 15.789062 21.484375 L 15.585938 21.652344 L 15.53125 21.691406 L 15.53125 21.726562 L 15.457031 21.765625 L 15.03125 22.191406 L 14.882812 22.394531 L 14.65625 22.671875 L 14.621094 22.765625 L 14.585938 22.765625 L 14.492188 22.953125 L 14.378906 23.117188 L 14.230469 23.414062 L 14.140625 23.640625 L 14.046875 23.84375 L 13.914062 24.195312 L 13.824219 24.546875 L 13.695312 25.066406 L 13.617188 25.605469 L 13.582031 25.847656 L 24.75 25.847656 L 24.863281 25.828125 L 24.828125 25.214844 L 24.734375 24.734375 L 24.585938 24.234375 L 24.472656 23.953125 L 24.417969 23.824219 L 24.324219 23.601562 L 24.175781 23.324219 L 24.046875 23.0625 L 23.9375 22.898438 L 23.730469 22.601562 L 23.695312 22.601562 L 23.65625 22.507812 L 23.398438 22.210938 L 23.25 22.0625 L 23.230469 22.023438 L 23.195312 22.023438 L 23.175781 21.96875 L 23.027344 21.839844 L 22.914062 21.746094 L 22.878906 21.746094 L 22.859375 21.691406 L 22.65625 21.523438 L 22.582031 21.46875 L 22.542969 21.46875 L 22.542969 21.429688 L 22.359375 21.300781 L 21.894531 21.023438 L 21.503906 20.855469 L 21.335938 20.78125 L 21.039062 20.671875 L 20.613281 20.539062 L 20.207031 20.464844 L 19.761719 20.410156 L 19.464844 20.390625 Z M 18.683594 20.390625 "/>
<path style=" stroke:none;fill-rule:nonzero;fill:rgb(14.117648%,51.764709%,65.882355%);fill-opacity:1;" d="M 18.960938 13.546875 L 19.445312 13.546875 L 19.796875 13.601562 L 20.113281 13.695312 L 20.539062 13.898438 L 20.800781 14.082031 L 20.984375 14.25 L 21.152344 14.4375 L 21.320312 14.675781 L 21.46875 14.9375 L 21.597656 15.25 L 21.671875 15.605469 L 21.671875 16.253906 L 21.578125 16.664062 L 21.449219 17.015625 L 21.300781 17.273438 L 21.152344 17.476562 L 20.949219 17.703125 L 20.742188 17.886719 L 20.445312 18.070312 L 20.113281 18.21875 L 19.761719 18.332031 L 19.539062 18.367188 L 19.074219 18.386719 L 18.59375 18.332031 L 18.089844 18.164062 L 17.792969 18 L 17.609375 17.851562 L 17.386719 17.644531 L 17.21875 17.441406 L 17.050781 17.199219 L 16.921875 16.941406 L 16.941406 16.847656 L 16.847656 16.570312 L 16.8125 16.402344 L 16.792969 16.234375 L 16.792969 15.902344 L 16.8125 15.753906 L 16.828125 15.753906 L 16.847656 16.199219 L 16.960938 16.679688 L 17.109375 17.050781 L 17.179688 17.164062 L 17.179688 17.199219 L 17.21875 17.199219 L 17.3125 17.347656 L 17.421875 17.496094 L 17.515625 17.609375 L 17.644531 17.71875 L 17.644531 17.757812 L 17.738281 17.773438 L 17.792969 17.832031 L 17.792969 17.867188 L 17.90625 17.90625 L 17.921875 17.941406 L 18.070312 18 L 18.21875 18.070312 L 18.703125 18.203125 L 19 18.238281 L 19.074219 18.257812 L 19.464844 18.257812 L 19.796875 18.183594 L 20.113281 18.070312 L 20.429688 17.921875 L 20.707031 17.71875 L 20.761719 17.703125 L 20.761719 17.664062 L 20.910156 17.535156 L 20.96875 17.515625 L 21.003906 17.441406 L 21.039062 17.441406 L 21.058594 17.367188 L 21.132812 17.238281 L 21.171875 17.238281 L 21.207031 17.125 L 21.335938 16.867188 L 21.449219 16.605469 L 21.523438 16.515625 L 21.523438 16.402344 L 21.542969 16.367188 L 21.542969 15.828125 L 21.523438 15.476562 L 21.375 15.03125 L 21.171875 14.675781 L 21.097656 14.585938 L 20.984375 14.4375 L 20.855469 14.289062 L 20.632812 14.121094 L 20.59375 14.101562 L 20.59375 14.0625 L 20.523438 14.046875 L 20.316406 13.933594 L 19.984375 13.804688 L 19.613281 13.730469 L 19.40625 13.710938 L 18.851562 13.710938 L 18.648438 13.75 L 18.238281 13.859375 L 17.90625 14.007812 L 17.703125 14.15625 L 17.570312 14.269531 L 17.535156 14.269531 L 17.515625 14.324219 L 17.476562 14.324219 L 17.441406 14.398438 L 17.21875 14.675781 L 17.109375 14.882812 L 16.960938 15.195312 L 16.902344 15.214844 L 16.960938 15.03125 L 17.015625 14.882812 L 16.996094 14.824219 L 17.164062 14.566406 L 17.3125 14.359375 L 17.554688 14.121094 L 17.703125 13.992188 L 18 13.824219 L 18.296875 13.695312 L 18.574219 13.601562 Z M 18.960938 13.546875 "/>
<path style=" stroke:none;fill-rule:nonzero;fill:rgb(25.882354%,60.000002%,72.156864%);fill-opacity:1;" d="M 25.011719 21.617188 L 25.105469 21.710938 L 25.289062 21.96875 L 25.476562 22.304688 L 25.699219 22.730469 L 25.921875 23.210938 L 26.105469 23.730469 L 26.292969 24.382812 L 26.382812 24.789062 L 26.496094 25.476562 L 26.550781 25.996094 L 26.550781 26.828125 L 26.476562 27.054688 L 26.367188 27.203125 L 26.21875 27.332031 L 26.144531 27.351562 L 26.144531 27.386719 L 25.976562 27.441406 L 25.867188 27.460938 L 16.847656 27.480469 L 12.617188 27.460938 L 12.414062 27.421875 L 12.28125 27.351562 L 12.191406 27.257812 L 12.078125 27.125 L 12.003906 26.960938 L 11.96875 26.773438 L 11.949219 26.3125 L 11.949219 25.882812 L 12.023438 25.179688 L 12.078125 24.84375 L 12.117188 24.734375 L 12.226562 24.234375 L 12.359375 23.789062 L 12.414062 23.621094 L 12.429688 23.695312 L 12.28125 24.195312 L 12.132812 24.863281 L 12.042969 25.53125 L 12.003906 26.050781 L 12.003906 26.699219 L 12.0625 26.996094 L 12.171875 27.183594 L 12.359375 27.3125 L 12.488281 27.367188 L 15.121094 27.386719 L 23.378906 27.386719 L 25.867188 27.367188 L 26.085938 27.332031 L 26.234375 27.257812 L 26.382812 27.125 L 26.476562 26.941406 L 26.496094 26.867188 L 26.515625 26.625 L 26.515625 26.105469 L 26.460938 25.511719 L 26.328125 24.734375 L 26.179688 24.140625 L 25.996094 23.546875 L 25.789062 23.046875 L 25.570312 22.5625 L 25.402344 22.246094 L 25.160156 21.859375 L 25.011719 21.652344 Z M 25.011719 21.617188 "/>
<path style=" stroke:none;fill-rule:nonzero;fill:rgb(28.235295%,61.176473%,72.941178%);fill-opacity:1;" d="M 24.417969 23.582031 L 24.453125 23.601562 L 24.640625 24.066406 L 24.789062 24.53125 L 24.898438 25.046875 L 24.957031 25.476562 L 24.992188 25.808594 L 24.992188 25.9375 L 24.808594 25.957031 L 13.507812 25.957031 L 13.488281 25.902344 L 13.546875 25.402344 L 13.636719 24.863281 L 13.675781 24.695312 L 13.695312 24.695312 L 13.65625 25.066406 L 13.617188 25.382812 L 13.546875 25.902344 L 14.621094 25.882812 L 24.9375 25.882812 L 24.917969 25.847656 L 24.84375 25.125 L 24.769531 24.714844 L 24.640625 24.269531 L 24.546875 23.992188 L 24.511719 23.84375 L 24.417969 23.621094 Z M 24.417969 23.582031 "/>
<path style=" stroke:none;fill-rule:nonzero;fill:rgb(12.156863%,50.588238%,65.098041%);fill-opacity:1;" d="M 16.8125 15.753906 L 16.828125 15.753906 L 16.847656 16.199219 L 16.960938 16.679688 L 17.109375 17.050781 L 17.179688 17.164062 L 17.179688 17.199219 L 17.21875 17.199219 L 17.3125 17.347656 L 17.421875 17.496094 L 17.515625 17.609375 L 17.644531 17.71875 L 17.644531 17.757812 L 17.738281 17.773438 L 17.792969 17.832031 L 17.792969 17.867188 L 17.90625 17.90625 L 17.921875 17.941406 L 18.070312 18 L 18.21875 18.070312 L 18.703125 18.203125 L 19 18.238281 L 19.074219 18.257812 L 19.464844 18.257812 L 19.796875 18.183594 L 20.113281 18.070312 L 20.429688 17.921875 L 20.707031 17.71875 L 20.761719 17.703125 L 20.761719 17.664062 L 20.910156 17.535156 L 20.96875 17.515625 L 21.003906 17.441406 L 21.039062 17.441406 L 21.058594 17.367188 L 21.132812 17.238281 L 21.171875 17.238281 L 21.207031 17.125 L 21.335938 16.867188 L 21.449219 16.605469 L 21.523438 16.53125 L 21.5625 16.585938 L 21.597656 16.53125 L 21.578125 16.664062 L 21.449219 17.015625 L 21.300781 17.273438 L 21.152344 17.476562 L 20.949219 17.703125 L 20.742188 17.886719 L 20.445312 18.070312 L 20.113281 18.21875 L 19.761719 18.332031 L 19.539062 18.367188 L 19.074219 18.386719 L 18.59375 18.332031 L 18.089844 18.164062 L 17.792969 18 L 17.609375 17.851562 L 17.386719 17.644531 L 17.21875 17.441406 L 17.050781 17.199219 L 16.921875 16.941406 L 16.941406 16.847656 L 16.847656 16.570312 L 16.8125 16.402344 L 16.792969 16.234375 L 16.792969 15.902344 Z M 16.8125 15.753906 "/>
<path style=" stroke:none;fill-rule:nonzero;fill:rgb(21.568628%,57.647061%,70.588237%);fill-opacity:1;" d="M 4.546875 29.726562 L 4.695312 29.761719 L 5.121094 29.964844 L 5.621094 30.171875 L 6.140625 30.335938 L 6.308594 30.390625 L 6.308594 30.429688 L 6.585938 30.46875 L 6.753906 30.484375 L 7.21875 30.578125 L 7.679688 30.632812 L 7.976562 30.652344 L 8.832031 30.671875 L 30.039062 30.671875 L 30.6875 30.652344 L 31.578125 30.597656 L 31.578125 30.632812 L 31.023438 30.6875 L 30.726562 30.707031 L 8.035156 30.707031 L 7.515625 30.671875 L 6.9375 30.597656 L 6.421875 30.484375 L 6.011719 30.375 L 5.53125 30.207031 L 5.121094 30.039062 L 4.710938 29.855469 L 4.546875 29.761719 Z M 4.546875 29.726562 "/>
<path style=" stroke:none;fill-rule:nonzero;fill:rgb(29.411766%,61.960787%,73.333335%);fill-opacity:1;" d="M 18.460938 6.828125 L 19.667969 6.828125 L 20.429688 6.902344 L 21.226562 7.03125 L 21.875 7.179688 L 22.394531 7.328125 L 22.96875 7.53125 L 23.15625 7.609375 L 23.117188 7.644531 L 22.898438 7.589844 L 22.433594 7.421875 L 21.875 7.253906 L 21.207031 7.105469 L 20.445312 6.976562 L 19.910156 6.921875 L 19.667969 6.902344 L 18.609375 6.902344 L 18.015625 6.9375 L 17.496094 7.015625 L 16.882812 7.144531 L 16.308594 7.292969 L 16.21875 7.3125 L 16.234375 7.234375 L 16.773438 7.085938 L 17.535156 6.9375 L 18.070312 6.867188 Z M 18.460938 6.828125 "/>
<path style=" stroke:none;fill-rule:nonzero;fill:rgb(33.725491%,63.921571%,74.901962%);fill-opacity:1;" d="M 19.316406 20.242188 L 19.703125 20.261719 L 20.039062 20.296875 L 20.410156 20.375 L 20.929688 20.503906 L 21.300781 20.632812 L 21.726562 20.820312 L 22.15625 21.039062 L 22.507812 21.265625 L 22.75 21.449219 L 22.988281 21.652344 L 23.007812 21.691406 L 22.898438 21.652344 L 22.671875 21.46875 L 22.191406 21.152344 L 21.859375 20.96875 L 21.429688 20.761719 L 20.96875 20.59375 L 20.355469 20.429688 L 19.910156 20.355469 L 19.574219 20.316406 L 18.832031 20.316406 L 18.238281 20.390625 L 17.589844 20.539062 L 17.050781 20.707031 L 16.71875 20.855469 L 16.679688 20.835938 L 16.699219 20.78125 L 17.164062 20.59375 L 17.738281 20.429688 L 18.164062 20.335938 L 18.515625 20.28125 L 18.703125 20.261719 Z M 19.316406 20.242188 "/>
<path style=" stroke:none;fill-rule:nonzero;fill:rgb(37.254903%,65.882355%,76.078433%);fill-opacity:1;" d="M 0.5 20.355469 L 0.539062 20.410156 L 0.464844 20.78125 L 0.40625 21.039062 L 0.335938 21.617188 L 0.296875 22.320312 L 0.296875 23.136719 L 0.335938 23.582031 L 0.40625 24.085938 L 0.519531 24.585938 L 0.554688 24.789062 L 0.613281 25.011719 L 0.722656 25.34375 L 0.703125 25.402344 L 0.574219 25.03125 L 0.425781 24.511719 L 0.296875 23.84375 L 0.242188 23.433594 L 0.203125 22.859375 L 0.203125 22.5625 L 0.257812 21.632812 L 0.335938 21.097656 L 0.464844 20.484375 Z M 0.5 20.355469 "/>
<path style=" stroke:none;fill-rule:nonzero;fill:rgb(30.980393%,62.7451%,74.117649%);fill-opacity:1;" d="M 18.960938 13.546875 L 19.445312 13.546875 L 19.796875 13.601562 L 20.113281 13.695312 L 20.539062 13.898438 L 20.800781 14.082031 L 20.984375 14.25 L 21.152344 14.4375 L 21.207031 14.507812 L 21.1875 14.546875 L 21.078125 14.453125 L 21.078125 14.398438 L 21.003906 14.359375 L 20.835938 14.195312 L 20.578125 14.007812 L 20.316406 13.859375 L 20.039062 13.75 L 19.78125 13.675781 L 19.539062 13.636719 L 18.871094 13.636719 L 18.554688 13.695312 L 18.109375 13.84375 L 17.867188 13.972656 L 17.738281 14.027344 L 17.535156 14.195312 L 17.238281 14.492188 L 17.273438 14.398438 L 17.554688 14.121094 L 17.703125 13.992188 L 18 13.824219 L 18.296875 13.695312 L 18.574219 13.601562 Z M 18.960938 13.546875 "/>
<path style=" stroke:none;fill-rule:nonzero;fill:rgb(39.215687%,67.058825%,76.862746%);fill-opacity:1;" d="M 30.078125 16.234375 L 30.949219 16.234375 L 31.507812 16.289062 L 31.988281 16.367188 L 32.339844 16.4375 L 32.824219 16.585938 L 33.34375 16.792969 L 33.65625 16.941406 L 33.992188 17.125 L 33.992188 17.164062 L 33.898438 17.125 L 33.601562 16.976562 L 33.25 16.8125 L 32.898438 16.664062 L 32.710938 16.625 L 32.230469 16.496094 L 31.746094 16.402344 L 31.320312 16.347656 L 30.875 16.308594 L 30.058594 16.308594 L 29.648438 16.328125 L 29.667969 16.253906 L 29.667969 16.289062 Z M 30.078125 16.234375 "/>
<path style=" stroke:none;fill-rule:nonzero;fill:rgb(37.254903%,65.882355%,76.47059%);fill-opacity:1;" d="M 7.53125 14.378906 L 8.144531 14.378906 L 8.589844 14.417969 L 9.054688 14.507812 L 9.035156 14.546875 L 8.8125 14.527344 L 8.570312 14.492188 L 8.351562 14.472656 L 7.292969 14.472656 L 6.773438 14.527344 L 6.34375 14.601562 L 5.789062 14.75 L 5.621094 14.804688 L 5.566406 14.789062 L 5.601562 14.734375 L 6.085938 14.585938 L 6.570312 14.492188 L 6.921875 14.4375 L 7.253906 14.398438 Z M 7.53125 14.378906 "/>
<path style=" stroke:none;fill-rule:nonzero;fill:rgb(32.941177%,63.529414%,74.901962%);fill-opacity:1;" d="M 16.976562 17.015625 L 17.03125 17.070312 L 17.144531 17.257812 L 17.328125 17.515625 L 17.554688 17.71875 L 17.757812 17.886719 L 18.035156 18.054688 L 18.296875 18.164062 L 18.609375 18.257812 L 19 18.3125 L 19.464844 18.3125 L 19.835938 18.238281 L 20.226562 18.109375 L 20.410156 18.015625 L 20.484375 18.054688 L 20.113281 18.21875 L 19.761719 18.332031 L 19.539062 18.367188 L 19.074219 18.386719 L 18.59375 18.332031 L 18.089844 18.164062 L 17.792969 18 L 17.609375 17.851562 L 17.386719 17.644531 L 17.21875 17.441406 L 17.050781 17.199219 L 16.976562 17.050781 Z M 16.976562 17.015625 "/>
<path style=" stroke:none;fill-rule:nonzero;fill:rgb(99.607843%,99.607843%,99.607843%);fill-opacity:1;" d="M 25.011719 21.617188 L 25.105469 21.710938 L 25.289062 21.96875 L 25.476562 22.304688 L 25.699219 22.730469 L 25.921875 23.210938 L 26.105469 23.730469 L 26.292969 24.382812 L 26.382812 24.789062 L 26.496094 25.476562 L 26.550781 25.996094 L 26.550781 26.828125 L 26.476562 27.054688 L 26.367188 27.203125 L 26.21875 27.332031 L 26.03125 27.40625 L 25.867188 27.386719 L 25.867188 27.367188 L 26.085938 27.332031 L 26.234375 27.257812 L 26.382812 27.125 L 26.476562 26.941406 L 26.496094 26.867188 L 26.515625 26.625 L 26.515625 26.105469 L 26.460938 25.511719 L 26.328125 24.734375 L 26.179688 24.140625 L 25.996094 23.546875 L 25.789062 23.046875 L 25.570312 22.5625 L 25.402344 22.246094 L 25.160156 21.859375 L 25.011719 21.652344 Z M 25.011719 21.617188 "/>
<path style=" stroke:none;fill-rule:nonzero;fill:rgb(52.156866%,74.117649%,81.960785%);fill-opacity:1;" d="M 4.546875 29.726562 L 4.695312 29.761719 L 5.121094 29.964844 L 5.621094 30.171875 L 6.140625 30.335938 L 6.308594 30.390625 L 6.308594 30.429688 L 6.585938 30.46875 L 6.753906 30.484375 L 7.21875 30.578125 L 7.679688 30.632812 L 8.257812 30.671875 L 8.257812 30.707031 L 8.035156 30.707031 L 7.515625 30.671875 L 6.9375 30.597656 L 6.421875 30.484375 L 6.011719 30.375 L 5.53125 30.207031 L 5.121094 30.039062 L 4.710938 29.855469 L 4.546875 29.761719 Z M 4.546875 29.726562 "/>
<path style=" stroke:none;fill-rule:nonzero;fill:rgb(41.568628%,68.235296%,78.039217%);fill-opacity:1;" d="M 21.875 19.296875 L 22.007812 19.296875 L 22.453125 19.484375 L 22.765625 19.632812 L 23.195312 19.871094 L 23.546875 20.113281 L 23.710938 20.261719 L 23.953125 20.445312 L 24.101562 20.539062 L 24.453125 20.890625 L 24.585938 21.039062 L 24.640625 21.132812 L 24.621094 21.171875 L 24.382812 20.910156 L 24.25 20.761719 L 24.027344 20.558594 L 23.824219 20.390625 L 23.5625 20.207031 L 23.230469 19.984375 L 22.820312 19.742188 L 22.523438 19.59375 L 22.171875 19.445312 L 21.875 19.335938 Z M 21.875 19.296875 "/>
<path style=" stroke:none;fill-rule:nonzero;fill:rgb(34.117648%,64.313728%,75.294119%);fill-opacity:1;" d="M 20.59375 20.429688 L 20.800781 20.464844 L 21.300781 20.632812 L 21.726562 20.820312 L 22.15625 21.039062 L 22.507812 21.265625 L 22.75 21.449219 L 22.988281 21.652344 L 23.007812 21.691406 L 22.898438 21.652344 L 22.671875 21.46875 L 22.191406 21.152344 L 21.859375 20.96875 L 21.429688 20.761719 L 20.96875 20.59375 L 20.578125 20.484375 Z M 20.59375 20.429688 "/>
<path style=" stroke:none;fill-rule:nonzero;fill:rgb(41.568628%,68.235296%,78.039217%);fill-opacity:1;" d="M 22.246094 13.320312 L 22.339844 13.398438 L 22.582031 13.730469 L 22.730469 13.972656 L 22.839844 14.175781 L 22.839844 14.210938 L 22.878906 14.210938 L 23.027344 14.546875 L 23.15625 14.917969 L 23.25 15.34375 L 23.285156 15.625 L 23.285156 15.863281 L 23.265625 16.140625 L 23.230469 16.140625 L 23.230469 15.902344 L 23.195312 15.476562 L 23.101562 15.011719 L 22.988281 14.640625 L 22.820312 14.25 L 22.636719 13.898438 L 22.394531 13.546875 L 22.246094 13.359375 Z M 22.246094 13.320312 "/>
<path style=" stroke:none;fill-rule:nonzero;fill:rgb(99.607843%,99.607843%,99.607843%);fill-opacity:1;" d="M 16.179688 7.253906 L 16.234375 7.273438 L 16.050781 7.347656 L 15.382812 7.570312 L 15.011719 7.71875 L 14.566406 7.921875 L 14.0625 8.183594 L 13.65625 8.421875 L 13.285156 8.664062 L 12.96875 8.886719 L 12.597656 9.183594 L 12.359375 9.390625 L 12.28125 9.425781 L 12.394531 9.296875 L 12.636719 9.09375 L 12.894531 8.886719 L 13.25 8.628906 L 13.636719 8.386719 L 13.914062 8.21875 L 14.359375 7.976562 L 14.65625 7.828125 L 15.011719 7.664062 L 15.398438 7.515625 L 16.070312 7.292969 Z M 16.179688 7.253906 "/>
<path style=" stroke:none;fill-rule:nonzero;fill:rgb(45.09804%,70.19608%,79.215688%);fill-opacity:1;" d="M 36.40625 27.628906 L 36.421875 27.664062 L 36.199219 27.980469 L 35.976562 28.242188 L 35.8125 28.425781 L 35.679688 28.574219 L 35.4375 28.816406 L 35.234375 28.984375 L 35.011719 29.167969 L 34.640625 29.445312 L 34.511719 29.539062 L 34.476562 29.539062 L 34.511719 29.464844 L 34.753906 29.28125 L 35.050781 29.054688 L 35.308594 28.835938 L 35.585938 28.574219 L 35.828125 28.3125 L 35.960938 28.164062 L 36.109375 28 L 36.328125 27.703125 Z M 36.40625 27.628906 "/>
<path style=" stroke:none;fill-rule:nonzero;fill:rgb(82.745099%,90.588236%,93.333334%);fill-opacity:1;" d="M 12.414062 23.621094 L 12.429688 23.695312 L 12.28125 24.195312 L 12.132812 24.863281 L 12.042969 25.53125 L 12.003906 26.050781 L 12.003906 26.699219 L 12.0625 26.996094 L 12.171875 27.183594 L 12.359375 27.3125 L 12.488281 27.367188 L 12.488281 27.40625 L 12.394531 27.386719 L 12.210938 27.273438 L 12.078125 27.125 L 12.003906 26.960938 L 11.96875 26.773438 L 11.949219 26.3125 L 11.949219 25.882812 L 12.023438 25.179688 L 12.078125 24.84375 L 12.117188 24.734375 L 12.226562 24.234375 L 12.359375 23.789062 Z M 12.414062 23.621094 "/>
<path style=" stroke:none;fill-rule:nonzero;fill:rgb(99.607843%,99.607843%,99.607843%);fill-opacity:1;" d="M 5.546875 14.75 L 5.585938 14.769531 L 5.363281 14.863281 L 4.84375 15.085938 L 4.546875 15.234375 L 4.304688 15.363281 L 3.953125 15.585938 L 3.601562 15.828125 L 3.359375 16.011719 L 3.042969 16.273438 L 2.820312 16.476562 L 2.449219 16.847656 L 2.28125 17.050781 L 2.207031 17.109375 L 2.246094 17.03125 L 2.46875 16.773438 L 2.96875 16.273438 L 3.171875 16.105469 L 3.46875 15.863281 L 3.804688 15.625 L 4.210938 15.363281 L 4.507812 15.195312 L 4.972656 14.972656 L 5.492188 14.769531 Z M 5.546875 14.75 "/>
<path style=" stroke:none;fill-rule:nonzero;fill:rgb(69.803923%,83.529413%,88.627452%);fill-opacity:1;" d="M 1.355469 26.699219 L 1.429688 26.792969 L 1.59375 27.070312 L 1.820312 27.367188 L 1.96875 27.570312 L 2.058594 27.648438 L 2.226562 27.851562 L 2.375 28 L 2.503906 28.148438 L 2.726562 28.371094 L 2.875 28.5 L 3.097656 28.703125 L 3.191406 28.816406 L 3.285156 28.890625 L 3.265625 28.925781 L 3.078125 28.757812 L 2.875 28.59375 L 2.597656 28.332031 L 2.335938 28.074219 L 2.207031 27.925781 L 2.039062 27.71875 L 1.855469 27.5 L 1.613281 27.164062 L 1.429688 26.886719 L 1.335938 26.71875 Z M 1.355469 26.699219 "/>
<path style=" stroke:none;fill-rule:nonzero;fill:rgb(52.549022%,74.117649%,81.960785%);fill-opacity:1;" d="M 37.367188 25.53125 L 37.386719 25.605469 L 37.277344 25.957031 L 37.148438 26.3125 L 36.921875 26.8125 L 36.644531 27.332031 L 36.496094 27.554688 L 36.421875 27.628906 L 36.40625 27.570312 L 36.664062 27.144531 L 36.851562 26.8125 L 36.980469 26.53125 L 37.183594 26.03125 L 37.332031 25.585938 Z M 37.367188 25.53125 "/>
<path style=" stroke:none;fill-rule:nonzero;fill:rgb(38.82353%,66.666669%,76.862746%);fill-opacity:1;" d="M 37.59375 22.601562 L 37.609375 22.601562 L 37.648438 23.027344 L 37.664062 23.453125 L 37.664062 23.804688 L 37.648438 24.214844 L 37.609375 24.492188 L 37.574219 24.417969 L 37.574219 24.25 L 37.59375 24.046875 L 37.59375 23.304688 L 37.574219 22.75 Z M 37.59375 22.601562 "/>
<path style=" stroke:none;fill-rule:nonzero;fill:rgb(35.294119%,64.705884%,75.686276%);fill-opacity:1;" d="M 15.234375 15.101562 L 15.25 15.101562 L 15.234375 15.308594 L 15.195312 15.640625 L 15.195312 16.160156 L 15.25 16.550781 L 15.25 16.625 L 15.195312 16.605469 L 15.121094 16.160156 L 15.121094 15.640625 L 15.179688 15.214844 L 15.214844 15.121094 Z M 15.234375 15.101562 "/>
<path style=" stroke:none;fill-rule:nonzero;fill:rgb(10.588235%,49.803922%,64.705884%);fill-opacity:1;" d="M 9.648438 13.117188 L 9.667969 13.171875 L 9.59375 13.359375 L 9.480469 13.785156 L 9.332031 14.230469 L 9.242188 14.566406 L 9.203125 14.585938 L 9.222656 14.417969 L 9.332031 13.992188 L 9.460938 13.582031 L 9.519531 13.320312 L 9.554688 13.25 L 9.59375 13.25 L 9.628906 13.136719 Z M 9.648438 13.117188 "/>
<path style=" stroke:none;fill-rule:nonzero;fill:rgb(99.607843%,99.607843%,99.607843%);fill-opacity:1;" d="M 23.210938 16.21875 L 23.230469 16.21875 L 23.230469 16.550781 L 23.101562 17.109375 L 22.953125 17.554688 L 22.804688 17.886719 L 22.617188 18.238281 L 22.507812 18.40625 L 22.453125 18.535156 L 22.375 18.628906 L 22.304688 18.664062 L 22.339844 18.574219 L 22.46875 18.386719 L 22.617188 18.148438 L 22.804688 17.792969 L 22.988281 17.3125 L 23.117188 16.847656 L 23.195312 16.421875 Z M 23.210938 16.21875 "/>
<path style=" stroke:none;fill-rule:nonzero;fill:rgb(52.941179%,74.117649%,81.960785%);fill-opacity:1;" d="M 15.734375 21.394531 L 15.773438 21.414062 L 15.625 21.542969 L 15.492188 21.691406 L 14.953125 22.226562 L 14.75 22.488281 L 14.65625 22.542969 L 14.695312 22.46875 L 14.882812 22.226562 L 15.046875 22.042969 L 15.546875 21.542969 Z M 15.734375 21.394531 "/>
<path style=" stroke:none;fill-rule:nonzero;fill:rgb(26.666668%,60.392159%,72.156864%);fill-opacity:1;" d="M 21.484375 15.03125 L 21.542969 15.101562 L 21.617188 15.328125 L 21.671875 15.605469 L 21.671875 16.253906 L 21.617188 16.53125 L 21.578125 16.496094 L 21.617188 16.085938 L 21.597656 15.585938 L 21.5625 15.382812 L 21.484375 15.121094 Z M 21.484375 15.03125 "/>
<path style=" stroke:none;fill-rule:nonzero;fill:rgb(40.784314%,67.843139%,77.64706%);fill-opacity:1;" d="M 18.960938 11.855469 L 19.351562 11.855469 L 19.742188 11.914062 L 19.796875 11.929688 L 19.796875 11.96875 L 19.574219 11.949219 L 19.445312 11.929688 L 18.796875 11.929688 L 18.460938 11.984375 L 18.386719 11.984375 L 18.40625 11.929688 L 18.742188 11.875 Z M 18.960938 11.855469 "/>
<path style=" stroke:none;fill-rule:nonzero;fill:rgb(99.607843%,99.607843%,99.607843%);fill-opacity:1;" d="M 23.046875 21.726562 L 23.117188 21.765625 L 23.621094 22.265625 L 23.859375 22.582031 L 24.046875 22.859375 L 24.214844 23.136719 L 24.417969 23.527344 L 24.398438 23.582031 L 24.175781 23.15625 L 23.9375 22.765625 L 23.75 22.507812 L 23.601562 22.320312 L 23.398438 22.097656 L 23.046875 21.746094 Z M 23.046875 21.726562 "/>
<path style=" stroke:none;fill-rule:nonzero;fill:rgb(99.607843%,99.607843%,99.607843%);fill-opacity:1;" d="M 25.679688 9.035156 L 25.808594 9.109375 L 26.125 9.371094 L 26.328125 9.539062 L 26.515625 9.703125 L 26.8125 9.984375 L 27.089844 10.28125 L 27.238281 10.445312 L 27.21875 10.484375 L 27.035156 10.316406 L 26.976562 10.222656 L 26.847656 10.09375 L 26.71875 9.945312 L 26.421875 9.667969 L 26.21875 9.5 L 25.976562 9.296875 L 25.679688 9.074219 Z M 25.679688 9.035156 "/>
<path style=" stroke:none;fill-rule:nonzero;fill:rgb(59.215689%,78.039217%,84.705883%);fill-opacity:1;" d="M 16.234375 18.757812 L 16.347656 18.851562 L 16.476562 19 L 16.734375 19.257812 L 16.71875 19.316406 L 16.496094 19.371094 L 16.140625 19.5 L 15.976562 19.554688 L 16.011719 19.484375 L 16.347656 19.371094 L 16.53125 19.296875 L 16.605469 19.257812 L 16.664062 19.257812 L 16.570312 19.167969 L 16.347656 18.960938 L 16.308594 18.925781 L 16.273438 18.832031 Z M 16.234375 18.757812 "/>
<path style=" stroke:none;fill-rule:nonzero;fill:rgb(67.058825%,81.960785%,87.450981%);fill-opacity:1;" d="M 0.335938 23.878906 L 0.371094 23.878906 L 0.5 24.53125 L 0.554688 24.734375 L 0.574219 24.898438 L 0.722656 25.34375 L 0.703125 25.402344 L 0.574219 25.03125 L 0.425781 24.511719 L 0.335938 24.066406 Z M 0.335938 23.878906 "/>
<path style=" stroke:none;fill-rule:nonzero;fill:rgb(34.509805%,64.705884%,75.294119%);fill-opacity:1;" d="M 17.257812 6.996094 L 17.292969 7.015625 L 17.21875 7.070312 L 16.644531 7.199219 L 16.253906 7.3125 L 16.21875 7.292969 L 16.234375 7.234375 L 16.773438 7.085938 Z M 17.257812 6.996094 "/>
<path style=" stroke:none;fill-rule:nonzero;fill:rgb(68.235296%,82.745099%,87.843138%);fill-opacity:1;" d="M 24.417969 23.582031 L 24.453125 23.601562 L 24.640625 24.066406 L 24.789062 24.53125 L 24.882812 24.9375 L 24.882812 25.03125 L 24.828125 25.011719 L 24.769531 24.714844 L 24.640625 24.269531 L 24.546875 23.992188 L 24.511719 23.84375 L 24.417969 23.621094 Z M 24.417969 23.582031 "/>
<path style=" stroke:none;fill-rule:nonzero;fill:rgb(99.607843%,99.607843%,99.607843%);fill-opacity:1;" d="M 14.304688 23.046875 L 14.324219 23.046875 L 14.304688 23.175781 L 14.082031 23.640625 L 14.046875 23.640625 L 13.785156 24.417969 L 13.710938 24.695312 L 13.695312 24.621094 L 13.824219 24.140625 L 14.007812 23.640625 L 14.230469 23.175781 Z M 14.304688 23.046875 "/>
<path style=" stroke:none;fill-rule:nonzero;fill:rgb(56.862748%,76.47059%,83.529413%);fill-opacity:1;" d="M 4.546875 29.726562 L 4.695312 29.761719 L 5.121094 29.964844 L 5.621094 30.171875 L 5.640625 30.207031 L 5.53125 30.207031 L 5.121094 30.039062 L 4.710938 29.855469 L 4.546875 29.761719 Z M 4.546875 29.726562 "/>
<path style=" stroke:none;fill-rule:nonzero;fill:rgb(36.470589%,65.490198%,76.078433%);fill-opacity:1;" d="M 32.636719 30.320312 L 32.75 30.335938 L 32.695312 30.375 L 32.25 30.503906 L 31.839844 30.597656 L 31.671875 30.617188 L 31.691406 30.558594 L 32.25 30.429688 Z M 32.636719 30.320312 "/>
<path style=" stroke:none;fill-rule:nonzero;fill:rgb(77.64706%,87.843138%,91.37255%);fill-opacity:1;" d="M 15.511719 17.535156 L 15.566406 17.609375 L 15.773438 18.035156 L 15.921875 18.296875 L 16.140625 18.609375 L 16.234375 18.722656 L 16.21875 18.757812 L 16.085938 18.609375 L 15.9375 18.40625 L 15.9375 18.367188 L 15.863281 18.332031 L 15.625 17.886719 L 15.53125 17.703125 Z M 15.511719 17.535156 "/>
<path style=" stroke:none;fill-rule:nonzero;fill:rgb(47.058824%,71.372551%,80.000001%);fill-opacity:1;" d="M 23.15625 7.625 L 23.324219 7.679688 L 23.878906 7.921875 L 24.15625 8.070312 L 24.085938 8.089844 L 23.972656 8.054688 L 23.621094 7.886719 L 23.265625 7.738281 L 23.25 7.699219 L 23.15625 7.664062 Z M 23.15625 7.625 "/>
<path style=" stroke:none;fill-rule:nonzero;fill:rgb(70.588237%,83.92157%,88.627452%);fill-opacity:1;" d="M 23.601562 20.1875 L 23.769531 20.296875 L 23.972656 20.464844 L 24.085938 20.523438 L 24.453125 20.890625 L 24.585938 21.039062 L 24.640625 21.132812 L 24.621094 21.171875 L 24.382812 20.910156 L 24.25 20.761719 L 24.027344 20.558594 L 23.824219 20.390625 L 23.582031 20.226562 Z M 23.601562 20.1875 "/>
<path style=" stroke:none;fill-rule:nonzero;fill:rgb(41.176471%,68.235296%,77.64706%);fill-opacity:1;" d="M 6.847656 30.523438 L 7.015625 30.539062 L 7.347656 30.597656 L 7.679688 30.632812 L 8.257812 30.671875 L 8.257812 30.707031 L 8.035156 30.707031 L 7.515625 30.671875 L 6.9375 30.597656 L 6.9375 30.558594 L 6.847656 30.539062 Z M 6.847656 30.523438 "/>
<path style=" stroke:none;fill-rule:nonzero;fill:rgb(57.254905%,76.862746%,83.92157%);fill-opacity:1;" d="M 29.429688 14.953125 L 29.484375 14.953125 L 29.539062 15.179688 L 29.613281 15.753906 L 29.648438 16.234375 L 29.613281 16.199219 L 29.578125 15.828125 L 29.578125 15.660156 L 29.539062 15.660156 L 29.429688 15.011719 Z M 29.429688 14.953125 "/>
<path style=" stroke:none;fill-rule:nonzero;fill:rgb(35.294119%,64.705884%,75.686276%);fill-opacity:1;" d="M 20.410156 18.015625 L 20.484375 18.054688 L 20.113281 18.21875 L 19.761719 18.332031 L 19.539062 18.367188 L 19.445312 18.367188 L 19.484375 18.3125 L 19.835938 18.238281 L 20.226562 18.109375 Z M 20.410156 18.015625 "/>
<path style=" stroke:none;fill-rule:nonzero;fill:rgb(98.823529%,99.215686%,99.215686%);fill-opacity:1;" d="M 32.5625 16.515625 L 32.765625 16.570312 L 33.34375 16.792969 L 33.65625 16.941406 L 33.992188 17.125 L 33.992188 17.164062 L 33.898438 17.125 L 33.601562 16.976562 L 33.25 16.8125 L 32.898438 16.664062 L 32.5625 16.550781 Z M 32.5625 16.515625 "/>
<path style=" stroke:none;fill-rule:nonzero;fill:rgb(50.980395%,73.333335%,81.176472%);fill-opacity:1;" d="M 13.675781 24.695312 L 13.695312 24.695312 L 13.65625 25.066406 L 13.617188 25.382812 L 13.5625 25.808594 L 13.507812 25.828125 L 13.527344 25.53125 L 13.636719 24.863281 Z M 13.675781 24.695312 "/>
<path style=" stroke:none;fill-rule:nonzero;fill:rgb(97.647059%,98.431373%,98.823529%);fill-opacity:1;" d="M 34.066406 17.179688 L 34.25 17.273438 L 34.546875 17.476562 L 34.84375 17.703125 L 35.085938 17.90625 L 35.050781 17.921875 L 34.957031 17.867188 L 34.863281 17.792969 L 34.773438 17.703125 L 34.546875 17.535156 L 34.269531 17.347656 L 34.066406 17.21875 Z M 34.066406 17.179688 "/>
<path style=" stroke:none;fill-rule:nonzero;fill:rgb(99.607843%,99.607843%,99.607843%);fill-opacity:1;" d="M 1.296875 18.386719 L 1.316406 18.425781 L 1.1875 18.722656 L 1.167969 18.757812 L 1.132812 18.757812 L 1.09375 18.871094 L 0.890625 19.316406 L 0.78125 19.613281 L 0.761719 19.554688 L 0.929688 19.109375 L 1.167969 18.609375 Z M 1.296875 18.386719 "/>
<path style=" stroke:none;fill-rule:nonzero;fill:rgb(60.392159%,78.431374%,85.09804%);fill-opacity:1;" d="M 16.976562 17.015625 L 17.03125 17.070312 L 17.144531 17.257812 L 17.328125 17.515625 L 17.554688 17.71875 L 17.664062 17.851562 L 17.757812 17.921875 L 17.738281 17.960938 L 17.535156 17.773438 L 17.386719 17.644531 L 17.21875 17.441406 L 17.050781 17.199219 L 16.976562 17.050781 Z M 16.976562 17.015625 "/>
<path style=" stroke:none;fill-rule:nonzero;fill:rgb(50.588238%,72.941178%,81.176472%);fill-opacity:1;" d="M 33.917969 29.796875 L 33.992188 29.835938 L 33.695312 29.984375 L 33.269531 30.171875 L 33.210938 30.152344 L 33.269531 30.09375 L 33.695312 29.910156 L 33.804688 29.855469 L 33.882812 29.875 Z M 33.917969 29.796875 "/>
<path style=" stroke:none;fill-rule:nonzero;fill:rgb(99.607843%,99.607843%,99.607843%);fill-opacity:1;" d="M 11.96875 26.085938 L 11.984375 26.085938 L 12.003906 26.699219 L 12.0625 26.996094 L 12.171875 27.183594 L 12.359375 27.3125 L 12.488281 27.367188 L 12.488281 27.40625 L 12.394531 27.386719 L 12.210938 27.273438 L 12.078125 27.125 L 12.003906 26.960938 L 11.96875 26.773438 Z M 11.96875 26.085938 "/>
<path style=" stroke:none;fill-rule:nonzero;fill:rgb(50.196081%,72.941178%,81.176472%);fill-opacity:1;" d="M 14.378906 20.539062 L 14.453125 20.558594 L 14.175781 20.820312 L 14.007812 20.984375 L 13.878906 21.132812 L 13.804688 21.207031 L 13.785156 21.152344 L 14.0625 20.855469 Z M 14.378906 20.539062 "/>
<path style=" stroke:none;fill-rule:nonzero;fill:rgb(73.725492%,85.490197%,89.803922%);fill-opacity:1;" d="M 15.921875 19.554688 L 15.976562 19.574219 L 15.566406 19.78125 L 15.179688 20.019531 L 15.101562 20.078125 L 15.066406 20.078125 L 15.101562 20 L 15.308594 19.851562 L 15.417969 19.796875 L 15.511719 19.761719 L 15.789062 19.613281 Z M 15.921875 19.554688 "/>
<path style=" stroke:none;fill-rule:nonzero;fill:rgb(43.529412%,69.411767%,78.823531%);fill-opacity:1;" d="M 37.445312 21.746094 L 37.480469 21.820312 L 37.574219 22.285156 L 37.59375 22.542969 L 37.535156 22.523438 L 37.445312 21.96875 Z M 37.445312 21.746094 "/>
<path style=" stroke:none;fill-rule:nonzero;fill:rgb(60.392159%,78.431374%,85.09804%);fill-opacity:1;" d="M 22.46875 7.367188 L 22.671875 7.421875 L 23.15625 7.609375 L 23.117188 7.644531 L 22.898438 7.589844 L 22.488281 7.441406 Z M 22.46875 7.367188 "/>
<path style=" stroke:none;fill-rule:nonzero;fill:rgb(43.529412%,69.411767%,78.431374%);fill-opacity:1;" d="M 35.03125 29.074219 L 35.085938 29.113281 L 34.789062 29.335938 L 34.511719 29.539062 L 34.476562 29.539062 L 34.511719 29.464844 L 34.753906 29.28125 Z M 35.03125 29.074219 "/>
<path style=" stroke:none;fill-rule:nonzero;fill:rgb(99.607843%,99.607843%,99.607843%);fill-opacity:1;" d="M 16.664062 20.800781 L 16.699219 20.820312 L 16.605469 20.875 L 16.550781 20.929688 L 16.328125 21.058594 L 16.199219 21.117188 L 15.882812 21.335938 L 15.808594 21.394531 L 15.773438 21.375 L 15.957031 21.226562 L 16.234375 21.039062 L 16.625 20.820312 Z M 16.664062 20.800781 "/>
<path style=" stroke:none;fill-rule:nonzero;fill:rgb(38.82353%,66.666669%,76.862746%);fill-opacity:1;" d="M 17.273438 20.558594 L 17.347656 20.578125 L 17.21875 20.652344 L 16.921875 20.761719 L 16.71875 20.855469 L 16.679688 20.835938 L 16.699219 20.78125 L 17.164062 20.59375 Z M 17.273438 20.558594 "/>
<path style=" stroke:none;fill-rule:nonzero;fill:rgb(42.352942%,68.627453%,78.039217%);fill-opacity:1;" d="M 25.140625 8.648438 L 25.363281 8.777344 L 25.625 8.980469 L 25.679688 9.015625 L 25.699219 9.09375 L 25.625 9.054688 L 25.253906 8.796875 L 25.125 8.683594 Z M 25.140625 8.648438 "/>
<path style=" stroke:none;fill-rule:nonzero;fill:rgb(52.156866%,73.725492%,81.960785%);fill-opacity:1;" d="M 20.671875 14.027344 L 20.761719 14.046875 L 21.003906 14.269531 L 21.207031 14.507812 L 21.1875 14.546875 L 21.078125 14.453125 L 21.078125 14.398438 L 21.003906 14.359375 L 20.835938 14.195312 L 20.671875 14.0625 Z M 20.671875 14.027344 "/>
<path style=" stroke:none;fill-rule:nonzero;fill:rgb(71.764708%,84.705883%,89.019608%);fill-opacity:1;" d="M 9.5 13.320312 L 9.519531 13.398438 L 9.445312 13.695312 L 9.332031 14.027344 L 9.277344 14.15625 L 9.242188 14.304688 L 9.222656 14.304688 L 9.242188 14.140625 Z M 9.5 13.320312 "/>
<path style=" stroke:none;fill-rule:nonzero;fill:rgb(33.725491%,63.921571%,74.901962%);fill-opacity:1;" d="M 31.429688 30.597656 L 31.578125 30.597656 L 31.578125 30.632812 L 31.023438 30.6875 L 30.578125 30.707031 L 30.6875 30.652344 L 31.28125 30.617188 Z M 31.429688 30.597656 "/>
<path style=" stroke:none;fill-rule:nonzero;fill:rgb(28.627452%,61.176473%,72.941178%);fill-opacity:1;" d="M 21.875 7.21875 L 22.007812 7.21875 L 22.453125 7.347656 L 22.488281 7.421875 L 22.320312 7.382812 L 21.875 7.253906 Z M 21.875 7.21875 "/>
<path style=" stroke:none;fill-rule:nonzero;fill:rgb(71.372551%,84.313726%,89.019608%);fill-opacity:1;" d="M 21.28125 17.238281 L 21.28125 17.292969 L 21.152344 17.476562 L 20.949219 17.703125 L 20.742188 17.886719 L 20.707031 17.867188 L 20.929688 17.625 L 21.1875 17.367188 Z M 21.28125 17.238281 "/>
<path style=" stroke:none;fill-rule:nonzero;fill:rgb(89.803922%,94.117647%,95.686275%);fill-opacity:1;" d="M 12.042969 9.609375 L 12.078125 9.628906 L 11.539062 10.167969 L 11.484375 10.261719 L 11.320312 10.410156 L 11.320312 10.351562 L 11.617188 10.039062 L 11.671875 9.964844 L 11.707031 9.964844 L 11.746094 9.890625 L 11.78125 9.890625 L 11.800781 9.835938 L 11.949219 9.703125 Z M 12.042969 9.609375 "/>
<path style=" stroke:none;fill-rule:nonzero;fill:rgb(70.588237%,83.92157%,88.627452%);fill-opacity:1;" d="M 10.242188 11.820312 L 10.261719 11.855469 L 10.132812 12.078125 L 10.074219 12.226562 L 9.90625 12.523438 L 9.851562 12.542969 L 9.890625 12.429688 L 10.054688 12.117188 Z M 10.242188 11.820312 "/>
<path style=" stroke:none;fill-rule:nonzero;fill:rgb(47.843137%,71.764708%,80.392158%);fill-opacity:1;" d="M 3.839844 29.316406 L 3.933594 29.316406 L 4.25 29.519531 L 4.324219 29.578125 L 4.324219 29.613281 L 4.414062 29.648438 L 4.453125 29.667969 L 4.433594 29.707031 L 3.988281 29.445312 L 3.839844 29.335938 Z M 3.839844 29.316406 "/>
<path style=" stroke:none;fill-rule:nonzero;fill:rgb(99.607843%,99.607843%,99.607843%);fill-opacity:1;" d="M 18.109375 13.765625 L 18.128906 13.804688 L 17.851562 13.953125 L 17.664062 14.082031 L 17.441406 14.289062 L 17.257812 14.492188 L 17.257812 14.4375 L 17.386719 14.289062 L 17.476562 14.175781 L 17.625 14.046875 L 17.921875 13.859375 Z M 18.109375 13.765625 "/>
<path style=" stroke:none;fill-rule:nonzero;fill:rgb(99.607843%,99.607843%,99.607843%);fill-opacity:1;" d="M 22.246094 13.320312 L 22.339844 13.398438 L 22.582031 13.730469 L 22.730469 13.972656 L 22.859375 14.230469 L 22.820312 14.25 L 22.636719 13.898438 L 22.394531 13.546875 L 22.246094 13.359375 Z M 22.246094 13.320312 "/>
<path style=" stroke:none;fill-rule:nonzero;fill:rgb(58.431375%,77.254903%,83.92157%);fill-opacity:1;" d="M 16.734375 16.160156 L 16.773438 16.234375 L 16.792969 16.402344 L 16.828125 16.402344 L 16.921875 16.753906 L 16.960938 16.882812 L 16.902344 16.902344 L 16.773438 16.476562 L 16.734375 16.253906 Z M 16.734375 16.160156 "/>
<path style=" stroke:none;fill-rule:nonzero;fill:rgb(45.09804%,70.19608%,79.215688%);fill-opacity:1;" d="M 36.40625 27.628906 L 36.421875 27.664062 L 36.199219 27.980469 L 36.070312 28.128906 L 36.03125 28.09375 L 36.273438 27.777344 Z M 36.40625 27.628906 "/>
<path style=" stroke:none;fill-rule:nonzero;fill:rgb(52.941179%,74.509805%,81.960785%);fill-opacity:1;" d="M 36.757812 27.054688 L 36.773438 27.089844 L 36.609375 27.386719 L 36.441406 27.628906 L 36.40625 27.570312 L 36.625 27.21875 L 36.703125 27.183594 L 36.738281 27.070312 Z M 36.757812 27.054688 "/>
<path style=" stroke:none;fill-rule:nonzero;fill:rgb(48.235294%,71.764708%,80.392158%);fill-opacity:1;" d="M 36.960938 26.609375 L 36.980469 26.609375 L 36.960938 26.738281 L 36.792969 27.054688 L 36.738281 27.109375 L 36.703125 27.183594 L 36.664062 27.183594 L 36.703125 27.089844 L 36.851562 26.8125 L 36.941406 26.625 Z M 36.960938 26.609375 "/>
<path style=" stroke:none;fill-rule:nonzero;fill:rgb(47.843137%,71.764708%,80.392158%);fill-opacity:1;" d="M 0.722656 25.402344 L 0.816406 25.492188 L 0.945312 25.808594 L 0.964844 25.9375 L 0.929688 25.9375 L 0.78125 25.605469 L 0.722656 25.457031 Z M 0.722656 25.402344 "/>
<path style=" stroke:none;fill-rule:nonzero;fill:rgb(75.686276%,86.666667%,90.588236%);fill-opacity:1;" d="M 16.847656 12.636719 L 16.882812 12.65625 L 16.585938 12.894531 L 16.253906 13.230469 L 16.253906 13.171875 L 16.53125 12.894531 L 16.644531 12.765625 L 16.792969 12.65625 Z M 16.847656 12.636719 "/>
<path style=" stroke:none;fill-rule:nonzero;fill:rgb(76.47059%,87.058824%,90.980393%);fill-opacity:1;" d="M 11.28125 10.410156 L 11.28125 10.464844 L 11.113281 10.667969 L 11.078125 10.742188 L 11.039062 10.761719 L 10.964844 10.890625 L 10.855469 10.984375 L 10.78125 11.058594 L 10.816406 10.964844 L 11.023438 10.726562 L 11.132812 10.578125 Z M 11.28125 10.410156 "/>
<path style=" stroke:none;fill-rule:nonzero;fill:rgb(87.843138%,92.941177%,94.901961%);fill-opacity:1;" d="M 26.625 9.816406 L 26.757812 9.925781 L 26.90625 10.074219 L 27.035156 10.222656 L 27.238281 10.445312 L 27.21875 10.484375 L 27.035156 10.316406 L 26.976562 10.222656 L 26.847656 10.09375 L 26.71875 9.945312 L 26.625 9.851562 Z M 26.625 9.816406 "/>
<path style=" stroke:none;fill-rule:nonzero;fill:rgb(34.117648%,64.313728%,75.294119%);fill-opacity:1;" d="M 23.175781 19.871094 L 23.378906 20 L 23.621094 20.167969 L 23.601562 20.207031 L 23.507812 20.167969 L 23.230469 19.984375 L 23.195312 19.964844 Z M 23.175781 19.871094 "/>
<path style=" stroke:none;fill-rule:nonzero;fill:rgb(68.235296%,82.745099%,87.843138%);fill-opacity:1;" d="M 6.195312 30.410156 L 6.363281 30.429688 L 6.585938 30.46875 L 6.753906 30.484375 L 6.9375 30.558594 L 6.9375 30.578125 L 6.734375 30.558594 L 6.195312 30.429688 Z M 6.195312 30.410156 "/>
<path style=" stroke:none;fill-rule:nonzero;fill:rgb(55.29412%,75.686276%,83.137256%);fill-opacity:1;" d="M 14.304688 23.046875 L 14.324219 23.046875 L 14.304688 23.175781 L 14.082031 23.640625 L 14.0625 23.582031 L 14.101562 23.507812 L 14.140625 23.359375 Z M 14.304688 23.046875 "/>
<path style=" stroke:none;fill-rule:nonzero;fill:rgb(98.431373%,98.823529%,98.823529%);fill-opacity:1;" d="M 20.949219 12.339844 L 21.039062 12.359375 L 21.375 12.542969 L 21.578125 12.691406 L 21.632812 12.726562 L 21.632812 12.765625 L 21.5625 12.726562 L 21.246094 12.523438 L 20.949219 12.359375 Z M 20.949219 12.339844 "/>
<path style=" stroke:none;fill-rule:nonzero;fill:rgb(49.411765%,72.549021%,80.784315%);fill-opacity:1;" d="M 24.75 24.472656 L 24.789062 24.53125 L 24.882812 24.9375 L 24.882812 25.03125 L 24.828125 25.011719 L 24.769531 24.714844 L 24.734375 24.53125 Z M 24.75 24.472656 "/>
<path style=" stroke:none;fill-rule:nonzero;fill:rgb(49.411765%,72.549021%,80.784315%);fill-opacity:1;" d="M 6.847656 30.523438 L 7.015625 30.539062 L 7.421875 30.617188 L 7.421875 30.652344 L 7.03125 30.617188 L 6.9375 30.597656 L 6.9375 30.558594 L 6.847656 30.539062 Z M 6.847656 30.523438 "/>
<path style=" stroke:none;fill-rule:nonzero;fill:rgb(74.509805%,85.882354%,90.196079%);fill-opacity:1;" d="M 22.488281 21.265625 L 22.65625 21.375 L 22.859375 21.542969 L 23.007812 21.671875 L 22.96875 21.691406 L 22.878906 21.632812 L 22.75 21.523438 L 22.65625 21.429688 L 22.488281 21.300781 Z M 22.488281 21.265625 "/>
<path style=" stroke:none;fill-rule:nonzero;fill:rgb(48.627451%,72.156864%,80.392158%);fill-opacity:1;" d="M 15.011719 20.058594 L 15.066406 20.09375 L 14.824219 20.28125 L 14.65625 20.410156 L 14.621094 20.390625 L 14.714844 20.28125 Z M 15.011719 20.058594 "/>
<path style=" stroke:none;fill-rule:nonzero;fill:rgb(60.392159%,78.431374%,85.09804%);fill-opacity:1;" d="M 0.5 20.355469 L 0.539062 20.410156 L 0.464844 20.78125 L 0.40625 20.910156 L 0.390625 20.910156 L 0.40625 20.726562 Z M 0.5 20.355469 "/>
<path style=" stroke:none;fill-rule:nonzero;fill:rgb(85.490197%,91.764706%,94.117647%);fill-opacity:1;" d="M 3.304688 28.90625 L 3.46875 29.019531 L 3.636719 29.148438 L 3.765625 29.203125 L 3.839844 29.316406 L 3.75 29.28125 L 3.414062 29.039062 L 3.285156 28.945312 Z M 3.304688 28.90625 "/>
<path style=" stroke:none;fill-rule:nonzero;fill:rgb(99.607843%,99.607843%,99.607843%);fill-opacity:1;" d="M 22.671875 18.070312 L 22.671875 18.128906 L 22.523438 18.386719 L 22.453125 18.535156 L 22.375 18.628906 L 22.304688 18.664062 L 22.339844 18.574219 L 22.46875 18.386719 L 22.617188 18.148438 Z M 22.671875 18.070312 "/>
<path style=" stroke:none;fill-rule:nonzero;fill:rgb(95.686275%,97.647059%,98.039216%);fill-opacity:1;" d="M 22.265625 18.683594 L 22.285156 18.742188 L 22.023438 19.019531 L 21.894531 19.167969 L 21.78125 19.296875 L 21.746094 19.296875 L 21.78125 19.222656 L 21.96875 19.039062 L 22.136719 18.832031 Z M 22.265625 18.683594 "/>
<path style=" stroke:none;fill-rule:nonzero;fill:rgb(41.568628%,68.235296%,78.039217%);fill-opacity:1;" d="M 35.085938 17.921875 L 35.160156 17.960938 L 35.457031 18.277344 L 35.679688 18.5 L 35.664062 18.535156 L 35.21875 18.089844 L 35.085938 17.941406 Z M 35.085938 17.921875 "/>
<path style=" stroke:none;fill-rule:nonzero;fill:rgb(21.568628%,57.647061%,70.588237%);fill-opacity:1;" d="M 21.875 19.296875 L 22.007812 19.296875 L 22.226562 19.390625 L 22.226562 19.445312 L 22.117188 19.425781 L 21.875 19.335938 Z M 21.875 19.296875 "/>
<path style=" stroke:none;fill-rule:nonzero;fill:rgb(46.27451%,70.588237%,79.607844%);fill-opacity:1;" d="M 15.234375 15.101562 L 15.25 15.101562 L 15.234375 15.308594 L 15.195312 15.640625 L 15.179688 15.640625 L 15.160156 15.476562 L 15.160156 15.308594 L 15.195312 15.140625 Z M 15.234375 15.101562 "/>
<path style=" stroke:none;fill-rule:nonzero;fill:rgb(45.490196%,70.588237%,79.607844%);fill-opacity:1;" d="M 24.304688 20.761719 L 24.4375 20.875 L 24.601562 21.058594 L 24.640625 21.171875 L 24.511719 21.058594 L 24.34375 20.855469 L 24.304688 20.820312 Z M 24.304688 20.761719 "/>
<path style=" stroke:none;fill-rule:nonzero;fill:rgb(21.568628%,57.647061%,70.588237%);fill-opacity:1;" d="M 23.265625 15.863281 L 23.285156 15.863281 L 23.285156 16.289062 L 23.25 16.550781 L 23.230469 16.550781 L 23.230469 16.140625 L 23.265625 16.140625 Z M 23.265625 15.863281 "/>
<path style=" stroke:none;fill-rule:nonzero;fill:rgb(99.607843%,99.607843%,99.607843%);fill-opacity:1;" d="M 16.976562 17.015625 L 17.03125 17.070312 L 17.144531 17.257812 L 17.328125 17.515625 L 17.386719 17.570312 L 17.367188 17.609375 L 17.199219 17.421875 L 17.03125 17.164062 L 16.976562 17.050781 Z M 16.976562 17.015625 "/>
<path style=" stroke:none;fill-rule:nonzero;fill:rgb(82.352942%,90.196079%,92.941177%);fill-opacity:1;" d="M 9.835938 12.542969 L 9.851562 12.597656 L 9.742188 12.820312 L 9.703125 12.96875 L 9.609375 13.136719 L 9.59375 13.082031 L 9.777344 12.636719 Z M 9.835938 12.542969 "/>
<path style=" stroke:none;fill-rule:nonzero;fill:rgb(46.27451%,70.588237%,79.607844%);fill-opacity:1;" d="M 17.851562 12.078125 L 17.960938 12.097656 L 17.90625 12.132812 L 17.589844 12.265625 L 17.554688 12.265625 L 17.589844 12.191406 Z M 17.851562 12.078125 "/>
<path style=" stroke:none;fill-rule:nonzero;fill:rgb(99.607843%,99.607843%,99.607843%);fill-opacity:1;" d="M 13.117188 22.117188 L 13.136719 22.15625 L 12.839844 22.671875 L 12.820312 22.636719 L 12.96875 22.359375 L 13.023438 22.210938 Z M 13.117188 22.117188 "/>
<path style=" stroke:none;fill-rule:nonzero;fill:rgb(65.882355%,81.176472%,87.058824%);fill-opacity:1;" d="M 1.058594 26.179688 L 1.132812 26.253906 L 1.207031 26.402344 L 1.261719 26.460938 L 1.316406 26.550781 L 1.296875 26.609375 L 1.261719 26.609375 L 1.058594 26.21875 Z M 1.058594 26.179688 "/>
<path style=" stroke:none;fill-rule:nonzero;fill:rgb(25.490198%,59.607846%,71.764708%);fill-opacity:1;" d="M 33.84375 17.109375 L 33.9375 17.125 L 34.066406 17.164062 L 34.085938 17.21875 L 34.269531 17.328125 L 34.398438 17.421875 L 34.363281 17.441406 L 33.972656 17.199219 L 33.84375 17.125 Z M 33.84375 17.109375 "/>
<path style=" stroke:none;fill-rule:nonzero;fill:rgb(58.431375%,77.254903%,84.313726%);fill-opacity:1;" d="M 37.109375 26.21875 L 37.128906 26.273438 L 36.960938 26.644531 L 36.921875 26.589844 L 37.035156 26.3125 Z M 37.109375 26.21875 "/>
<path style=" stroke:none;fill-rule:nonzero;fill:rgb(65.098041%,81.176472%,86.666667%);fill-opacity:1;" d="M 12.746094 22.785156 L 12.765625 22.839844 L 12.578125 23.265625 L 12.5625 23.265625 L 12.578125 23.101562 L 12.691406 22.859375 L 12.726562 22.859375 Z M 12.746094 22.785156 "/>
<path style=" stroke:none;fill-rule:nonzero;fill:rgb(69.411767%,83.137256%,88.235295%);fill-opacity:1;" d="M 2.1875 17.109375 L 2.1875 17.164062 L 2.117188 17.257812 L 2.039062 17.386719 L 1.96875 17.476562 L 1.875 17.535156 L 1.910156 17.460938 L 2.132812 17.164062 Z M 2.1875 17.109375 "/>
<path style=" stroke:none;fill-rule:nonzero;fill:rgb(77.64706%,87.450981%,91.37255%);fill-opacity:1;" d="M 21.859375 12.914062 L 21.988281 13.023438 L 22.097656 13.101562 L 22.191406 13.191406 L 22.246094 13.285156 L 22.226562 13.320312 L 22.0625 13.136719 L 21.914062 13.007812 L 21.839844 12.933594 Z M 21.859375 12.914062 "/>
<path style=" stroke:none;fill-rule:nonzero;fill:rgb(56.862748%,76.47059%,83.529413%);fill-opacity:1;" d="M 37.480469 25.085938 L 37.5 25.085938 L 37.480469 25.234375 L 37.40625 25.53125 L 37.367188 25.492188 L 37.40625 25.273438 L 37.460938 25.125 Z M 37.480469 25.085938 "/>
<path style=" stroke:none;fill-rule:nonzero;fill:rgb(52.549022%,74.117649%,81.960785%);fill-opacity:1;" d="M 12.078125 24.84375 L 12.097656 24.84375 L 12.097656 25.085938 L 12.0625 25.363281 L 12.023438 25.363281 L 12.023438 25.179688 Z M 12.078125 24.84375 "/>
<path style=" stroke:none;fill-rule:nonzero;fill:rgb(47.058824%,71.372551%,80.000001%);fill-opacity:1;" d="M 21.484375 15.03125 L 21.542969 15.101562 L 21.617188 15.328125 L 21.632812 15.476562 L 21.578125 15.4375 L 21.484375 15.121094 Z M 21.484375 15.03125 "/>
<path style=" stroke:none;fill-rule:nonzero;fill:rgb(32.549021%,63.529414%,74.509805%);fill-opacity:1;" d="M 21.542969 12.65625 L 21.617188 12.691406 L 21.820312 12.839844 L 21.875 12.914062 L 21.800781 12.914062 L 21.632812 12.785156 L 21.632812 12.726562 L 21.5625 12.691406 Z M 21.542969 12.65625 "/>
<path style=" stroke:none;fill-rule:nonzero;fill:rgb(34.509805%,64.313728%,75.294119%);fill-opacity:1;" d="M 22.246094 19.40625 L 22.414062 19.464844 L 22.542969 19.539062 L 22.523438 19.574219 L 22.433594 19.554688 L 22.226562 19.464844 Z M 22.246094 19.40625 "/>
<path style=" stroke:none;fill-rule:nonzero;fill:rgb(58.039218%,77.254903%,83.92157%);fill-opacity:1;" d="M 14.898438 22.210938 L 14.9375 22.226562 L 14.898438 22.304688 L 14.734375 22.507812 L 14.65625 22.542969 L 14.695312 22.46875 L 14.882812 22.226562 Z M 14.898438 22.210938 "/>
<path style=" stroke:none;fill-rule:nonzero;fill:rgb(60.392159%,78.431374%,85.09804%);fill-opacity:1;" d="M 16.664062 20.800781 L 16.699219 20.820312 L 16.605469 20.875 L 16.550781 20.929688 L 16.328125 21.058594 L 16.289062 21.039062 L 16.382812 20.949219 Z M 16.664062 20.800781 "/>
<path style=" stroke:none;fill-rule:nonzero;fill:rgb(39.215687%,67.058825%,77.254903%);fill-opacity:1;" d="M 18.609375 11.894531 L 18.742188 11.894531 L 18.796875 11.929688 L 18.460938 11.984375 L 18.386719 11.984375 L 18.40625 11.929688 Z M 18.609375 11.894531 "/>
<path style=" stroke:none;fill-rule:nonzero;fill:rgb(56.470591%,76.47059%,83.529413%);fill-opacity:1;" d="M 37.21875 21.039062 L 37.257812 21.078125 L 37.367188 21.414062 L 37.367188 21.46875 L 37.3125 21.449219 L 37.21875 21.152344 Z M 37.21875 21.039062 "/>
<path style=" stroke:none;fill-rule:nonzero;fill:rgb(61.176473%,78.823531%,85.09804%);fill-opacity:1;" d="M 23.15625 7.625 L 23.324219 7.679688 L 23.492188 7.757812 L 23.527344 7.828125 L 23.359375 7.773438 L 23.265625 7.738281 L 23.25 7.699219 L 23.15625 7.664062 Z M 23.15625 7.625 "/>
<path style=" stroke:none;fill-rule:nonzero;fill:rgb(38.431373%,66.666669%,76.862746%);fill-opacity:1;" d="M 11.96875 25.828125 L 12.003906 25.828125 L 12.003906 26.050781 L 11.984375 26.085938 L 11.96875 26.3125 L 11.949219 26.3125 L 11.949219 25.882812 Z M 11.96875 25.828125 "/>
<path style=" stroke:none;fill-rule:nonzero;fill:rgb(41.568628%,68.235296%,78.039217%);fill-opacity:1;" d="M 23.824219 7.941406 L 23.953125 7.960938 L 24.15625 8.070312 L 24.085938 8.089844 L 23.972656 8.054688 L 23.824219 7.976562 Z M 23.824219 7.941406 "/>
<path style=" stroke:none;fill-rule:nonzero;fill:rgb(38.82353%,67.058825%,76.862746%);fill-opacity:1;" d="M 30.6875 30.652344 L 31.0625 30.652344 L 31.023438 30.6875 L 30.578125 30.707031 L 30.652344 30.671875 Z M 30.6875 30.652344 "/>
<path style=" stroke:none;fill-rule:nonzero;fill:rgb(75.686276%,86.666667%,90.588236%);fill-opacity:1;" d="M 37.574219 24.53125 L 37.59375 24.53125 L 37.59375 24.679688 L 37.515625 25.085938 L 37.480469 25.046875 L 37.5 24.863281 L 37.535156 24.75 Z M 37.574219 24.53125 "/>
<path style=" stroke:none;fill-rule:nonzero;fill:rgb(49.019608%,72.156864%,80.784315%);fill-opacity:1;" d="M 5.976562 30.300781 L 6.273438 30.375 L 6.308594 30.410156 L 6.140625 30.410156 L 5.976562 30.355469 Z M 5.976562 30.300781 "/>
<path style=" stroke:none;fill-rule:nonzero;fill:rgb(57.254905%,76.862746%,83.529413%);fill-opacity:1;" d="M 4.546875 29.726562 L 4.695312 29.761719 L 4.859375 29.855469 L 4.859375 29.910156 L 4.75 29.875 L 4.546875 29.761719 Z M 4.546875 29.726562 "/>
<path style=" stroke:none;fill-rule:nonzero;fill:rgb(30.980393%,62.7451%,74.117649%);fill-opacity:1;" d="M 5.769531 14.675781 L 5.863281 14.695312 L 5.84375 14.734375 L 5.621094 14.804688 L 5.566406 14.789062 L 5.601562 14.734375 Z M 5.769531 14.675781 "/>
<path style=" stroke:none;fill-rule:nonzero;fill:rgb(65.098041%,81.176472%,86.666667%);fill-opacity:1;" d="M 9.5 13.320312 L 9.519531 13.398438 L 9.445312 13.695312 L 9.40625 13.804688 L 9.390625 13.804688 L 9.390625 13.65625 Z M 9.5 13.320312 "/>
<path style=" stroke:none;fill-rule:nonzero;fill:rgb(47.450981%,71.372551%,80.000001%);fill-opacity:1;" d="M 35.03125 29.074219 L 35.085938 29.113281 L 34.84375 29.296875 L 34.808594 29.28125 L 34.921875 29.148438 Z M 35.03125 29.074219 "/>
<path style=" stroke:none;fill-rule:nonzero;fill:rgb(57.647061%,76.862746%,83.92157%);fill-opacity:1;" d="M 20.613281 12.152344 L 20.78125 12.210938 L 20.855469 12.246094 L 20.855469 12.28125 L 20.929688 12.300781 L 20.910156 12.339844 L 20.558594 12.191406 Z M 20.613281 12.152344 "/>
<path style=" stroke:none;fill-rule:nonzero;fill:rgb(63.921571%,80.392158%,86.274511%);fill-opacity:1;" d="M 1.761719 17.664062 L 1.78125 17.738281 L 1.726562 17.757812 L 1.6875 17.851562 L 1.613281 17.980469 L 1.539062 18.015625 L 1.578125 17.921875 Z M 1.761719 17.664062 "/>
<path style=" stroke:none;fill-rule:nonzero;fill:rgb(65.098041%,80.784315%,86.666667%);fill-opacity:1;" d="M 21.652344 16.085938 L 21.671875 16.085938 L 21.671875 16.253906 L 21.617188 16.53125 L 21.578125 16.496094 L 21.597656 16.308594 L 21.632812 16.21875 Z M 21.652344 16.085938 "/>
<path style=" stroke:none;fill-rule:nonzero;fill:rgb(63.137257%,80.000001%,85.882354%);fill-opacity:1;" d="M 20.226562 12.023438 L 20.445312 12.078125 L 20.464844 12.132812 L 20.558594 12.152344 L 20.503906 12.171875 L 20.167969 12.0625 Z M 20.226562 12.023438 "/>
<path style=" stroke:none;fill-rule:nonzero;fill:rgb(70.19608%,83.92157%,88.627452%);fill-opacity:1;" d="M 18.332031 11.96875 L 18.367188 11.96875 L 18.367188 12.003906 L 18.015625 12.097656 L 17.960938 12.097656 L 17.980469 12.042969 L 18.128906 12.003906 Z M 18.332031 11.96875 "/>
<path style=" stroke:none;fill-rule:nonzero;fill:rgb(36.078432%,65.490198%,76.078433%);fill-opacity:1;" d="M 0.964844 25.9375 L 1 25.9375 L 1.113281 26.179688 L 1.09375 26.21875 L 1.019531 26.144531 L 0.945312 25.996094 Z M 0.964844 25.9375 "/>
<path style=" stroke:none;fill-rule:nonzero;fill:rgb(82.745099%,90.588236%,93.333334%);fill-opacity:1;" d="M 17.238281 12.394531 L 17.292969 12.414062 L 17.089844 12.523438 L 16.921875 12.636719 L 16.882812 12.617188 L 16.976562 12.523438 L 17.109375 12.46875 Z M 17.238281 12.394531 "/>
<path style=" stroke:none;fill-rule:nonzero;fill:rgb(46.27451%,70.588237%,79.607844%);fill-opacity:1;" d="M 32.992188 30.207031 L 33.082031 30.226562 L 33.027344 30.261719 L 32.804688 30.335938 L 32.765625 30.335938 L 32.785156 30.28125 Z M 32.992188 30.207031 "/>
<path style=" stroke:none;fill-rule:nonzero;fill:rgb(63.137257%,80.000001%,85.882354%);fill-opacity:1;" d="M 34.214844 29.632812 L 34.289062 29.667969 L 34.03125 29.816406 L 33.992188 29.796875 L 34.085938 29.761719 L 34.121094 29.6875 Z M 34.214844 29.632812 "/>
<path style=" stroke:none;fill-rule:nonzero;fill:rgb(49.803922%,72.941178%,81.176472%);fill-opacity:1;" d="M 12.226562 9.445312 L 12.265625 9.460938 L 12.003906 9.742188 L 11.949219 9.796875 L 11.914062 9.777344 L 12.0625 9.628906 L 12.191406 9.480469 Z M 12.226562 9.445312 "/>
<path style=" stroke:none;fill-rule:nonzero;fill:rgb(52.549022%,74.117649%,81.960785%);fill-opacity:1;" d="M 1.984375 27.589844 L 2.1875 27.796875 L 2.171875 27.867188 L 2.003906 27.683594 Z M 1.984375 27.589844 "/>
<path style=" stroke:none;fill-rule:nonzero;fill:rgb(62.352943%,79.607844%,85.490197%);fill-opacity:1;" d="M 14.492188 22.75 L 14.507812 22.820312 L 14.378906 23.027344 L 14.324219 23.046875 L 14.359375 22.953125 Z M 14.492188 22.75 "/>
<path style=" stroke:none;fill-rule:nonzero;fill:rgb(23.137255%,58.431375%,70.980394%);fill-opacity:1;" d="M 24.085938 8.070312 L 24.214844 8.109375 L 24.214844 8.144531 L 24.304688 8.183594 L 24.492188 8.292969 L 24.453125 8.3125 L 24.085938 8.109375 Z M 24.085938 8.070312 "/>
<path style=" stroke:none;fill-rule:nonzero;fill:rgb(37.254903%,65.882355%,76.47059%);fill-opacity:1;" d="M 7.421875 30.617188 L 7.679688 30.632812 L 7.792969 30.652344 L 7.792969 30.6875 L 7.515625 30.671875 L 7.421875 30.652344 Z M 7.421875 30.617188 "/>
<path style=" stroke:none;fill-rule:nonzero;fill:rgb(35.294119%,65.098041%,75.686276%);fill-opacity:1;" d="M 35.199219 28.925781 L 35.234375 28.925781 L 35.21875 29 L 35.105469 29.09375 L 35.050781 29.074219 Z M 35.199219 28.925781 "/>
<path style=" stroke:none;fill-rule:nonzero;fill:rgb(49.411765%,72.549021%,80.784315%);fill-opacity:1;" d="M 13.75 21.207031 L 13.804688 21.226562 L 13.65625 21.394531 L 13.582031 21.46875 L 13.582031 21.414062 L 13.710938 21.246094 Z M 13.75 21.207031 "/>
<path style=" stroke:none;fill-rule:nonzero;fill:rgb(57.254905%,76.862746%,83.92157%);fill-opacity:1;" d="M 17.421875 12.265625 L 17.554688 12.265625 L 17.476562 12.320312 L 17.328125 12.394531 L 17.292969 12.394531 L 17.328125 12.320312 Z M 17.421875 12.265625 "/>
<path style=" stroke:none;fill-rule:nonzero;fill:rgb(25.882354%,59.607846%,72.156864%);fill-opacity:1;" d="M 4.324219 29.578125 L 4.621094 29.726562 L 4.640625 29.761719 L 4.472656 29.726562 L 4.453125 29.667969 L 4.359375 29.632812 L 4.324219 29.613281 Z M 4.324219 29.578125 "/>
<path style=" stroke:none;fill-rule:nonzero;fill:rgb(43.137255%,69.01961%,78.431374%);fill-opacity:1;" d="M 24.863281 8.480469 L 25.011719 8.554688 L 25.066406 8.609375 L 24.992188 8.628906 L 24.828125 8.515625 Z M 24.863281 8.480469 "/>
<path style=" stroke:none;fill-rule:nonzero;fill:rgb(28.235295%,61.176473%,72.941178%);fill-opacity:1;" d="M 1.296875 26.589844 L 1.335938 26.589844 L 1.464844 26.8125 L 1.445312 26.847656 L 1.355469 26.71875 L 1.28125 26.644531 Z M 1.296875 26.589844 "/>
<path style=" stroke:none;fill-rule:nonzero;fill:rgb(81.176472%,89.411765%,92.54902%);fill-opacity:1;" d="M 24.640625 21.171875 L 24.769531 21.28125 L 24.863281 21.355469 L 24.898438 21.46875 L 24.640625 21.207031 Z M 24.640625 21.171875 "/>
<path style=" stroke:none;fill-rule:nonzero;fill:rgb(44.313726%,69.803923%,78.823531%);fill-opacity:1;" d="M 16.140625 19.425781 L 16.179688 19.425781 L 16.179688 19.484375 L 16.011719 19.554688 L 15.976562 19.554688 L 16.011719 19.484375 Z M 16.140625 19.425781 "/>
<path style=" stroke:none;fill-rule:nonzero;fill:rgb(46.666667%,70.980394%,79.607844%);fill-opacity:1;" d="M 17.015625 14.863281 L 17.03125 14.898438 L 16.960938 15.066406 L 16.882812 15.101562 L 16.941406 14.9375 Z M 17.015625 14.863281 "/>
<path style=" stroke:none;fill-rule:nonzero;fill:rgb(61.56863%,79.215688%,85.490197%);fill-opacity:1;" d="M 15.398438 21.691406 L 15.457031 21.710938 L 15.234375 21.914062 L 15.179688 21.96875 L 15.140625 21.949219 Z M 15.398438 21.691406 "/>
<path style=" stroke:none;fill-rule:nonzero;fill:rgb(49.803922%,72.549021%,80.784315%);fill-opacity:1;" d="M 13.972656 20.96875 L 13.992188 21.023438 L 13.804688 21.207031 L 13.785156 21.152344 Z M 13.972656 20.96875 "/>
<path style=" stroke:none;fill-rule:nonzero;fill:rgb(59.215689%,77.64706%,84.313726%);fill-opacity:1;" d="M 1.296875 18.386719 L 1.316406 18.425781 L 1.1875 18.722656 L 1.148438 18.757812 L 1.167969 18.664062 L 1.226562 18.515625 Z M 1.296875 18.386719 "/>
<path style=" stroke:none;fill-rule:nonzero;fill:rgb(45.09804%,70.19608%,79.215688%);fill-opacity:1;" d="M 20.652344 17.867188 L 20.707031 17.90625 L 20.523438 18.035156 L 20.484375 18.035156 L 20.523438 17.960938 Z M 20.652344 17.867188 "/>
<path style=" stroke:none;fill-rule:nonzero;fill:rgb(72.549021%,85.09804%,89.411765%);fill-opacity:1;" d="M 36.757812 27.054688 L 36.773438 27.089844 L 36.644531 27.332031 L 36.609375 27.273438 L 36.644531 27.203125 L 36.703125 27.183594 L 36.738281 27.070312 Z M 36.757812 27.054688 "/>
<path style=" stroke:none;fill-rule:nonzero;fill:rgb(45.882353%,70.588237%,79.607844%);fill-opacity:1;" d="M 15.753906 18.109375 L 15.828125 18.128906 L 15.902344 18.3125 L 15.902344 18.367188 L 15.789062 18.203125 Z M 15.753906 18.109375 "/>
<path style=" stroke:none;fill-rule:nonzero;fill:rgb(45.882353%,70.588237%,79.607844%);fill-opacity:1;" d="M 17.257812 6.996094 L 17.292969 7.015625 L 17.21875 7.070312 L 17.070312 7.085938 L 17.03125 7.03125 Z M 17.257812 6.996094 "/>
<path style=" stroke:none;fill-rule:nonzero;fill:rgb(99.607843%,99.607843%,99.607843%);fill-opacity:1;" d="M 2.652344 28.371094 L 2.726562 28.40625 L 2.875 28.539062 L 2.929688 28.59375 L 2.914062 28.628906 L 2.652344 28.390625 Z M 2.652344 28.371094 "/>
<path style=" stroke:none;fill-rule:nonzero;fill:rgb(59.215689%,77.64706%,84.313726%);fill-opacity:1;" d="M 22.46875 18.445312 L 22.46875 18.5 L 22.375 18.628906 L 22.304688 18.664062 L 22.339844 18.574219 L 22.414062 18.480469 Z M 22.46875 18.445312 "/>
<path style=" stroke:none;fill-rule:nonzero;fill:rgb(29.019609%,61.56863%,73.333335%);fill-opacity:1;" d="M 16.941406 16.882812 L 16.996094 16.941406 L 17.089844 17.125 L 17.070312 17.164062 L 16.996094 17.03125 L 16.941406 16.976562 L 16.921875 16.902344 Z M 16.941406 16.882812 "/>
<path style=" stroke:none;fill-rule:nonzero;fill:rgb(43.921569%,69.803923%,78.823531%);fill-opacity:1;" d="M 19.910156 11.949219 L 20.132812 11.984375 L 20.148438 12.042969 L 19.851562 11.984375 Z M 19.910156 11.949219 "/>
<path style=" stroke:none;fill-rule:nonzero;fill:rgb(65.490198%,81.176472%,86.666667%);fill-opacity:1;" d="M 21.578125 16.53125 L 21.597656 16.605469 L 21.523438 16.828125 L 21.484375 16.792969 L 21.503906 16.699219 Z M 21.578125 16.53125 "/>
<path style=" stroke:none;fill-rule:nonzero;fill:rgb(67.058825%,81.960785%,87.450981%);fill-opacity:1;" d="M 33.417969 30.058594 L 33.492188 30.078125 L 33.269531 30.171875 L 33.210938 30.152344 L 33.269531 30.09375 Z M 33.417969 30.058594 "/>
<path style=" stroke:none;fill-rule:nonzero;fill:rgb(56.470591%,76.078433%,83.529413%);fill-opacity:1;" d="M 37.367188 25.53125 L 37.386719 25.605469 L 37.332031 25.789062 L 37.296875 25.753906 L 37.332031 25.585938 Z M 37.367188 25.53125 "/>
<path style=" stroke:none;fill-rule:nonzero;fill:rgb(50.980395%,73.333335%,81.568629%);fill-opacity:1;" d="M 24.808594 24.828125 L 24.863281 24.84375 L 24.882812 25.03125 L 24.828125 25.011719 Z M 24.808594 24.828125 "/>
<path style=" stroke:none;fill-rule:nonzero;fill:rgb(59.215689%,77.64706%,84.313726%);fill-opacity:1;" d="M 13.117188 22.117188 L 13.136719 22.15625 L 13.042969 22.304688 L 12.988281 22.320312 L 13.023438 22.210938 Z M 13.117188 22.117188 "/>
<path style=" stroke:none;fill-rule:nonzero;fill:rgb(38.039216%,66.274512%,76.47059%);fill-opacity:1;" d="M 31.785156 30.539062 L 31.875 30.539062 L 31.875 30.578125 L 31.726562 30.617188 L 31.671875 30.617188 L 31.691406 30.558594 Z M 31.785156 30.539062 "/>
<path style=" stroke:none;fill-rule:nonzero;fill:rgb(27.058825%,60.392159%,72.549021%);fill-opacity:1;" d="M 22.96875 21.691406 L 23.046875 21.710938 L 23.175781 21.859375 L 23.230469 21.929688 L 23.15625 21.894531 L 22.96875 21.710938 Z M 22.96875 21.691406 "/>
<path style=" stroke:none;fill-rule:nonzero;fill:rgb(99.607843%,99.607843%,99.607843%);fill-opacity:1;" d="M 21.914062 19.335938 L 22.078125 19.351562 L 22.210938 19.425781 L 22.171875 19.445312 L 21.914062 19.351562 Z M 21.914062 19.335938 "/>
<path style=" stroke:none;fill-rule:nonzero;fill:rgb(52.156866%,74.117649%,81.960785%);fill-opacity:1;" d="M 16.21875 13.191406 L 16.234375 13.25 L 16.125 13.378906 L 16.085938 13.320312 Z M 16.21875 13.191406 "/>
<path style=" stroke:none;fill-rule:nonzero;fill:rgb(65.882355%,81.568629%,87.058824%);fill-opacity:1;" d="M 10.761719 11.058594 L 10.78125 11.132812 L 10.6875 11.242188 L 10.632812 11.261719 L 10.667969 11.171875 Z M 10.761719 11.058594 "/>
<path style=" stroke:none;fill-rule:nonzero;fill:rgb(61.960787%,79.215688%,85.490197%);fill-opacity:1;" d="M 12.507812 23.359375 L 12.523438 23.414062 L 12.449219 23.621094 L 12.429688 23.621094 L 12.429688 23.492188 L 12.488281 23.378906 Z M 12.507812 23.359375 "/>
<path style=" stroke:none;fill-rule:nonzero;fill:rgb(41.568628%,68.235296%,78.039217%);fill-opacity:1;" d="M 12.875 22.488281 L 12.894531 22.523438 L 12.820312 22.710938 L 12.785156 22.785156 L 12.765625 22.785156 L 12.785156 22.65625 Z M 12.875 22.488281 "/>
<path style=" stroke:none;fill-rule:nonzero;fill:rgb(56.078434%,76.078433%,83.137256%);fill-opacity:1;" d="M 34.863281 17.773438 L 34.976562 17.8125 L 35.085938 17.90625 L 35.050781 17.921875 L 34.957031 17.867188 Z M 34.863281 17.773438 "/>
<path style=" stroke:none;fill-rule:nonzero;fill:rgb(36.470589%,65.490198%,76.078433%);fill-opacity:1;" d="M 36.125 28 L 36.144531 28.054688 L 36.050781 28.128906 L 36.050781 28.074219 Z M 36.125 28 "/>
<path style=" stroke:none;fill-rule:nonzero;fill:rgb(57.254905%,76.862746%,83.92157%);fill-opacity:1;" d="M 14.769531 20.242188 L 14.789062 20.296875 L 14.65625 20.410156 L 14.621094 20.390625 L 14.714844 20.28125 Z M 14.769531 20.242188 "/>
<path style=" stroke:none;fill-rule:nonzero;fill:rgb(42.352942%,68.627453%,78.039217%);fill-opacity:1;" d="M 20.410156 18.015625 L 20.484375 18.054688 L 20.335938 18.128906 L 20.296875 18.128906 L 20.335938 18.054688 Z M 20.410156 18.015625 "/>
<path style=" stroke:none;fill-rule:nonzero;fill:rgb(54.509807%,75.294119%,82.745099%);fill-opacity:1;" d="M 15.382812 17.164062 L 15.417969 17.238281 L 15.457031 17.328125 L 15.457031 17.386719 L 15.398438 17.367188 L 15.363281 17.21875 Z M 15.382812 17.164062 "/>
<path style=" stroke:none;fill-rule:nonzero;fill:rgb(9.803922%,49.411765%,64.313728%);fill-opacity:1;" d="M 9.648438 13.117188 L 9.667969 13.171875 L 9.59375 13.359375 L 9.554688 13.359375 L 9.574219 13.25 L 9.628906 13.136719 Z M 9.648438 13.117188 "/>
</g>
</svg>
